<?xml version="1.0" standalone="no"?>
<!DOCTYPE svg PUBLIC "-//W3C//DTD SVG 1.1//EN" "http://www.w3.org/Graphics/SVG/1.1/DTD/svg11.dtd">
<svg xmlns="http://www.w3.org/2000/svg">
<metadata>Generated by Fontastic.me</metadata>
<defs>
<font id="set" horiz-adv-x="512">
<font-face font-family="set" units-per-em="512" ascent="480" descent="-32"/>
<missing-glyph horiz-adv-x="512" />

<glyph glyph-name="arrow-down" unicode="&#97;" d="M256 171c-6 0-11 2-15 6l-128 128c-8 9-8 21 0 30 9 8 21 8 30 0l113-113 113 113c9 8 21 8 30 0 8-9 8-21 0-30l-128-128c-4-4-9-6-15-6z"/>
<glyph glyph-name="alert" unicode="&#98;" d="M75 43c-11 0-22 2-32 8-30 17-41 58-24 88l182 303c4 8 12 17 21 21 15 8 32 11 49 6 17-4 30-15 40-30l180-300c6-11 8-22 8-32 0-17-6-34-19-45-11-13-26-19-43-19z m162 375l-179-301c-7-10-3-23 8-30 2-2 7-2 9-2l360 0c7 0 11 2 15 7 4 4 7 8 7 15 0 4 0 6-3 10l-179 301c-6 11-19 13-30 9-4-2-6-5-8-9z m19-205c-13 0-21 9-21 22l0 85c0 13 8 21 21 21 13 0 21-8 21-21l0-85c0-13-8-22-21-22z m0-85c-6 0-11 2-15 6-4 5-6 9-6 15 0 2 0 7 2 9 2 2 2 4 4 6 9 9 21 9 30 0 2-2 4-4 4-6 0-2 2-4 2-9 0-4 0-6-2-8-2-2-2-4-4-7-4-4-9-6-15-6z"/>
<glyph glyph-name="message" unicode="&#99;" d="M64 43c-6 0-11 2-15 6-6 6-8 15-4 21l38 113c-13 26-19 56-19 84 0 76 43 147 113 181 28 15 60 21 90 21l10 0c105-6 186-87 192-190l0-12c0-32-6-62-21-92-34-68-105-111-181-111-28 0-58 6-84 17l-113-38c-2 0-4 0-6 0z m203 384c-26 0-49-7-71-17-55-28-89-81-89-143 0-26 6-49 17-71 2-4 2-10 2-17l-28-81 81 28c7 2 11 2 17-2 22-11 47-17 71-17 62 0 115 34 143 87 10 21 17 47 17 71l0 12c-5 81-69 145-152 150z"/>
<glyph glyph-name="settings" unicode="&#100;" d="M486 310l-36 6c-4 12-9 24-15 35l22 29c9 13 7 30-4 41l-32 32c-6 6-14 9-22 9-7 0-13-2-18-6l-30-21c-12 6-24 11-36 15l-6 36c-3 15-16 26-31 26l-45 0c-16 0-29-11-32-26l-6-37c-12-4-24-8-35-14l-29 21c-5 4-12 6-18 6-9 0-17-4-23-10l-32-32c-11-10-12-28-3-40l21-30c-6-12-10-23-14-35l-36-6c-15-3-26-16-26-32l0-45c0-15 11-28 26-31l37-6c4-12 8-24 14-35l-21-29c-9-13-7-30 4-41l32-32c6-6 14-9 22-9 7 0 13 2 18 6l30 21c11-5 23-10 34-14l6-36c3-15 16-26 31-26l46 0c15 0 28 11 31 26l6 36c12 4 24 9 35 15l29-21c6-4 12-6 19-6 8 0 16 3 22 9l32 32c11 11 12 28 3 41l-21 29c6 12 11 23 15 35l36 6c15 3 26 16 26 31l0 46c0 15-11 28-26 31z m-3-77c0-1-1-2-2-2l-45-8c-6-1-10-5-11-10-5-16-11-31-19-45-3-5-3-11 1-16l26-37c1-1 1-3 0-4l-32-32c-1 0-2 0-2 0-1 0-1 0-2 0l-37 26c-5 4-11 4-16 1-14-8-29-14-45-19-5-1-9-5-10-11l-8-45c0-1-1-2-2-2l-46 0c-1 0-2 1-2 2l-8 45c-1 6-5 10-10 11-16 4-30 11-44 18-2 2-5 2-7 2-3 0-6 0-9-2l-37-27c-1 0-1 0-2 0 0 0-1 0-2 0l-32 32c-1 1-1 3 0 4l26 37c4 5 4 11 1 16-8 14-15 29-19 44-1 6-6 10-12 11l-45 8c-1 0-2 1-2 2l0 45c0 2 1 3 2 3l45 8c6 1 10 5 11 10 4 16 11 31 19 45 3 5 2 11-1 16l-27 37c0 1 0 3 1 4l32 32c0 1 1 1 2 1 0 0 1 0 1-1l37-26c5-3 11-4 16-1 14 9 29 15 45 19 5 2 9 6 10 12l8 45c0 1 1 2 3 2l45 0c1 0 2-1 3-2l7-45c1-5 5-10 11-11 16-4 31-11 46-19 5-3 11-3 15 0l37 27c1 0 1 0 2 0 0 0 1 0 2 0l32-32c1-1 1-3 0-4l-26-37c-4-5-4-11-1-16 8-14 15-29 19-45 1-5 6-9 11-10l45-8c1 0 2-1 2-2z m-227 134c-61 0-110-50-110-111 0-61 49-110 110-110 61 0 111 49 111 110 0 61-50 111-111 111z m0-193c-45 0-82 37-82 82 0 45 37 82 82 82 45 0 82-37 82-82 0-45-37-82-82-82z"/>
<glyph glyph-name="search" unicode="&#101;" d="M224 107c-100 0-181 81-181 181 0 100 81 181 181 181 100 0 181-81 181-181 0-100-81-181-181-181z m0 320c-77 0-139-62-139-139 0-77 62-139 139-139 77 0 139 62 139 139 0 77-62 139-139 139z m224-384c-6 0-11 2-15 6l-111 111c-8 9-8 21 0 30 9 8 21 8 30 0l111-111c8-9 8-21 0-30-4-4-9-6-15-6z"/>
<glyph glyph-name="check" unicode="&#102;" d="M477 350c0-7-2-14-8-19l-206-207-39-39c-6-5-12-8-20-8-7 0-14 3-19 8l-142 142c-6 6-8 12-8 20 0 7 2 14 8 19l38 39c6 5 12 8 20 8 7 0 14-3 19-8l84-84 188 188c5 5 12 8 19 8 8 0 14-3 20-8l38-39c6-6 8-12 8-20z"/>
<glyph glyph-name="checklite" unicode="&#103;" d="M192 128c-6 0-11 2-15 6l-107 107c-8 9-8 21 0 30 9 8 22 8 30 0l92-92 220 220c8 8 21 8 30 0 8-9 8-21 0-30l-235-235c-4-4-9-6-15-6z"/>
<glyph glyph-name="clipboard" unicode="&#104;" d="M384 21l-256 0c-36 0-64 28-64 64l0 299c0 36 28 64 64 64l43 0c12 0 21-9 21-21 0-13-9-22-21-22l-43 0c-13 0-21-8-21-21l0-299c0-12 8-21 21-21l256 0c13 0 21 9 21 21l0 299c0 13-8 21-21 21l-43 0c-12 0-21 9-21 22 0 12 9 21 21 21l43 0c36 0 64-28 64-64l0-299c0-36-28-64-64-64z m-64 342l-128 0c-23 0-43 19-43 42l0 43c0 23 20 43 43 43l128 0c23 0 43-20 43-43l0-43c0-23-20-42-43-42z m-128 85l0-43 128 0 0 43z"/>
<glyph glyph-name="edit" unicode="&#105;" d="M149 128l-85 0c-13 0-21 9-21 21l0 86c0 6 2 10 6 15l235 234c8 9 21 9 30 0l85-85c8-9 8-21 0-30l-235-235c-4-4-8-6-15-6z m-64 43l56 0 213 213-55 55-214-213z m363-150l-384 0c-13 0-21 9-21 22 0 12 8 21 21 21l384 0c13 0 21-9 21-21 0-13-8-22-21-22z"/>
<glyph glyph-name="arrow-right" unicode="&#106;" d="M405 235l-298 0c-13 0-22 8-22 21 0 13 9 21 22 21l298 0c13 0 22-8 22-21 0-13-9-21-22-21z m-149-150c-6 0-11 2-15 7-8 8-8 21 0 30l134 134-134 134c-8 9-8 22 0 30 9 9 21 9 30 0l149-149c9-9 9-21 0-30l-149-149c-4-5-9-7-15-7z"/>
<glyph glyph-name="arrow-left" unicode="&#107;" d="M107 235l298 0c13 0 22 8 22 21 0 13-9 21-22 21l-298 0c-13 0-22-8-22-21 0-13 9-21 22-21z m149-150c6 0 11 2 15 7 8 8 8 21 0 30l-134 134 134 134c8 9 8 22 0 30-9 9-21 9-30 0l-149-149c-9-9-9-21 0-30l149-149c4-5 9-7 15-7z"/>
<glyph glyph-name="inbox" unicode="&#108;" d="M299 171l-86 0c-6 0-12 4-17 8l-36 56-117 0c-13 0-22 8-22 21 0 13 9 21 22 21l128 0c6 0 12-4 17-8l36-56 62 0 36 56c4 6 11 8 17 8l128 0c13 0 22-8 22-21 0-13-9-21-22-21l-117 0-36-56c-3-4-9-8-15-8z m128-107l-342 0c-36 0-64 28-64 64l0 128c0 4 0 6 2 9l73 147c13 23 34 36 58 36l202 0c24 0 47-13 58-36l72-147c5-3 5-5 5-9l0-128c0-36-28-64-64-64z m-363 188l0-124c0-13 9-21 21-21l342 0c12 0 21 8 21 21l0 124-70 143c-5 6-13 10-20 10l-204 0c-7 0-15-4-20-12z m53 151z"/>
<glyph glyph-name="globe" unicode="&#109;" d="M256 491c-130 0-235-105-235-235 0-130 105-235 235-235 130 0 235 105 235 235 0 130-105 235-235 235z m190-214l-85 0c-5 60-24 116-58 165 77-20 134-84 143-165z m-252-42l126 0c-6-58-28-113-62-158-38 45-60 100-64 158z m0 42c7 58 26 113 62 158 36-47 58-100 62-158z m13 165c-32-49-51-105-56-165l-85 0c9 81 66 145 141 165z m-141-207l85 0c5-60 24-116 58-165-77 20-134 84-143 165z m239-165c32 49 51 105 58 165l85 0c-11-81-68-145-143-165z"/>
<glyph glyph-name="instagram" unicode="&#110;" d="M256 465c68 0 77 0 105-2 70-2 102-36 104-105 2-27 2-34 2-102 0-68 0-77-2-102-2-69-36-103-104-105-28-2-35-2-105-2-68 0-77 0-102 2-71 2-103 36-105 105-2 27-2 34-2 102 0 68 0 77 2 102 2 69 36 103 105 105 25 2 34 2 102 2z m0 47c-70 0-79 0-105-2-93-4-145-56-149-149-2-26-2-35-2-105 0-70 0-79 2-105 4-93 56-145 149-149 26-2 35-2 105-2 70 0 79 0 105 2 93 4 145 56 149 149 2 26 2 35 2 105 0 70 0 79-2 105-4 93-56 145-149 149-26 2-35 2-105 2z m0-124c-73 0-132-59-132-132 0-73 59-132 132-132 73 0 132 59 132 132 0 73-59 132-132 132z m0-217c-47 0-85 38-85 85 0 47 38 85 85 85 47 0 85-38 85-85 0-47-38-85-85-85z m137 251c-18 0-30-12-30-29 0-18 12-30 30-30 17 0 29 12 29 30 0 17-12 29-29 29z"/>
<glyph glyph-name="more" unicode="&#111;" d="M92 317c-34 0-61-27-61-61 0-34 27-61 61-61 34 0 62 27 62 61 0 34-28 61-62 61z m0-94c-18 0-33 15-33 33 0 18 15 33 33 33 19 0 33-15 33-33 0-18-15-33-33-33z m164 94c-34 0-61-27-61-61 0-34 27-61 61-61 34 0 61 27 61 61 0 34-27 61-61 61z m0-94c-18 0-33 15-33 33 0 18 15 33 33 33 18 0 33-15 33-33 0-18-15-33-33-33z m164 94c-34 0-62-27-62-61 0-34 28-61 62-61 34 0 61 27 61 61 0 34-27 61-61 61z m0-94c-18 0-33 15-33 33 0 18 14 33 33 33 18 0 33-15 33-33 0-18-15-33-33-33z"/>
<glyph glyph-name="close" unicode="&#112;" d="M128 107c-6 0-11 2-15 6-8 9-8 21 0 30l256 256c9 8 21 8 30 0 8-9 8-21 0-30l-256-256c-4-4-9-6-15-6z m256 0c-6 0-11 2-15 6l-256 256c-8 9-8 21 0 30 9 8 21 8 30 0l256-256c8-9 8-21 0-30-4-4-9-6-15-6z"/>
<glyph glyph-name="facebook" unicode="&#113;" d="M384 509l0-76-45 0c-17 0-28-3-33-10-6-7-9-17-9-31l0-54 84 0-11-85-73 0 0-216-87 0 0 216-73 0 0 85 73 0 0 62c0 36 10 63 29 83 20 19 47 29 80 29 28 0 49-1 65-3z"/>
<glyph glyph-name="twitter" unicode="&#114;" d="M481 395c-13-18-28-34-46-47 0-3 0-7 0-12 0-25-3-50-11-74-7-25-18-49-33-71-14-23-32-43-52-61-21-17-45-31-74-41-29-11-60-16-92-16-52 0-99 14-142 42 7-1 14-2 22-2 43 0 81 14 115 40-20 0-38 6-54 18-16 12-27 27-33 46 7-1 13-2 18-2 8 0 16 1 24 4-21 4-39 15-53 31-14 17-21 37-21 59l0 1c13-7 27-11 42-11-13 8-23 19-30 32-8 14-11 29-11 44 0 17 4 33 12 47 23-28 51-51 84-68 33-17 69-27 107-29-2 8-3 15-3 22 0 25 9 47 27 65 18 18 40 27 66 27 26 0 49-10 67-29 21 4 40 11 59 22-7-22-21-39-41-51 18 2 35 7 53 14z"/>
<glyph glyph-name="linkedin" unicode="&#115;" d="M136 333l0-283-94 0 0 283z m6 88c0-14-4-26-14-35-10-9-23-14-39-14-16 0-29 5-38 14-10 9-14 21-14 35 0 14 4 26 14 35 10 9 23 14 39 14 16 0 28-5 38-14 9-9 14-21 14-35z m333-208l0-163-94 0 0 152c0 20-3 35-11 47-8 11-20 17-36 17-12 0-22-4-30-10-9-7-15-15-19-25-2-5-3-13-3-23l0-158-94 0c1 76 1 138 1 185 0 47 0 76 0 85l-1 13 94 0 0-41c4 6 7 12 11 16 4 5 10 10 17 15 6 5 15 10 24 13 10 3 21 4 33 4 33 0 59-11 79-32 20-22 29-54 29-95z"/>
<glyph glyph-name="play" unicode="&#116;" d="M107 43c-5 0-7 0-11 2-6 4-11 10-11 19l0 384c0 9 5 15 11 19 6 4 15 4 21 0l299-192c6-4 11-10 11-17 0-6-5-15-11-17l-299-192c-2-4-6-6-10-6z m21 367l0-305 239 151z"/>
<glyph glyph-name="plus" unicode="&#117;" d="M256 85c-13 0-21 9-21 22l0 298c0 13 8 22 21 22 13 0 21-9 21-22l0-298c0-13-8-22-21-22z m149 150l-298 0c-13 0-22 8-22 21 0 13 9 21 22 21l298 0c13 0 22-8 22-21 0-13-9-21-22-21z"/>
<glyph glyph-name="filter" unicode="&#118;" d="M299 43c-5 0-7 0-9 2l-85 42c-9 5-13 11-13 20l0 132-166 196c-5 7-7 15-3 22 5 8 11 12 20 12l426 0c9 0 15-4 20-12 4-9 2-18-3-24l-166-194 0-175c0-6-4-15-11-19-2-2-6-2-10-2z m-64 76l42-21 0 147c0 5 2 11 5 13l140 169-332 0 140-167c5-4 5-8 5-13z"/>
<glyph glyph-name="calendar" unicode="&#119;" d="M405 21l-298 0c-37 0-64 28-64 64l0 299c0 36 27 64 64 64l298 0c37 0 64-28 64-64l0-299c0-36-27-64-64-64z m-298 384c-13 0-22-8-22-21l0-299c0-12 9-21 22-21l298 0c13 0 22 9 22 21l0 299c0 13-9 21-22 21z m234-42c-12 0-21 8-21 21l0 85c0 13 9 22 21 22 13 0 22-9 22-22l0-85c0-13-9-21-22-21z m-170 0c-13 0-22 8-22 21l0 85c0 13 9 22 22 22 12 0 21-9 21-22l0-85c0-13-9-21-21-21z m277-86l-384 0c-13 0-21 9-21 22 0 12 8 21 21 21l384 0c13 0 21-9 21-21 0-13-8-22-21-22z"/>
<glyph glyph-name="user" unicode="&#120;" d="M427 43c-13 0-22 8-22 21l0 43c0 36-27 64-64 64l-170 0c-37 0-64-28-64-64l0-43c0-13-9-21-22-21-12 0-21 8-21 21l0 43c0 59 47 106 107 106l170 0c60 0 107-47 107-106l0-43c0-13-9-21-21-21z m-171 213c-60 0-107 47-107 107 0 59 47 106 107 106 60 0 107-47 107-106 0-60-47-107-107-107z m0 171c-36 0-64-28-64-64 0-37 28-64 64-64 36 0 64 27 64 64 0 36-28 64-64 64z"/>
<glyph glyph-name="box" unicode="&#121;" d="M457 416l-171 85c-19 9-41 9-58 0l-170-85c-13-6-22-15-28-26-7-10-9-21-9-32l0-204c0-24 15-47 37-58l170-85c9-5 17-7 28-7 11 0 19 2 30 9l171 85c23 11 36 34 36 58l0 202c0 26-15 47-36 58z m-210 47c3 2 5 2 9 2 4 0 6-2 9-2l157-79-59-30-167 83z m9-162l-166 83 59 30 167-83z m-181-164c-7 4-11 10-11 19l0 194 171-85 0-207z m360 0l-158-79 0 209 88 42c4 0 10 2 13 7l70 36 0-196c0-9-6-15-13-19z"/>
<glyph glyph-name="help" unicode="&#122;" d="M425 92c40 42 66 100 66 164 0 130-105 235-235 235-64 0-122-26-164-66 0 0-2 0-2-3 0-2 0-2-3-2-40-42-66-100-66-164 0-64 26-122 66-164 0 0 0-2 3-2 0 0 2-3 2-3 42-40 100-66 164-66 64 0 122 26 164 66 0 0 2 0 2 3 0 0 0 2 3 2z m-20 45l-62 61c13 15 20 37 20 58 0 21-7 43-17 60l59 59c26-32 43-74 43-119 0-45-15-87-43-119z m-213 119c0 36 28 64 64 64 17 0 32-6 43-15 0-2 2-2 2-4 2-2 2-2 4-2 11-11 15-26 15-43 0-36-28-64-64-64-36 0-64 28-64 64z m183 149l-61-62c-15 13-37 20-58 20-21 0-43-7-60-17l-59 59c32 28 74 43 119 43 45 0 87-15 119-43z m-268-30l62-61c-13-15-20-37-20-58 0-21 7-43 17-60l-59-59c-26 32-43 74-43 119 0 45 15 87 43 119z m30-268l61 62c15-13 37-20 58-20 21 0 43 7 60 17l62-61c-32-26-75-43-120-43-45 0-89 17-121 45z"/>
<glyph glyph-name="book" unicode="&#65;" d="M427 491l-288 0c-41 0-75-34-75-75l0-320c0-41 34-75 75-75l288 0c12 0 21 9 21 22l0 426c0 13-9 22-21 22z m-288-43l266 0 0-277-266 0c-11 0-22-2-32-9l0 254c0 17 15 32 32 32z m0-384c-17 0-32 15-32 32 0 17 15 32 32 32l266 0 0-64z"/>
<glyph glyph-name="creditcard" unicode="&#66;" d="M448 448l-384 0c-36 0-64-28-64-64l0-256c0-36 28-64 64-64l384 0c36 0 64 28 64 64l0 256c0 36-28 64-64 64z m-384-43l384 0c13 0 21-8 21-21l0-64-426 0 0 64c0 13 8 21 21 21z m384-298l-384 0c-13 0-21 8-21 21l0 149 426 0 0-149c0-13-8-21-21-21z"/>
<glyph glyph-name="grid" unicode="&#67;" d="M213 469l-149 0c-13 0-21-8-21-21l0-384c0-13 8-21 21-21l149 0c13 0 22 8 22 21l0 384c0 13-9 21-22 21z m-21-384l-107 0 0 342 107 0z m256 384l-149 0c-13 0-22-8-22-21l0-149c0-13 9-22 22-22l149 0c13 0 21 9 21 22l0 149c0 13-8 21-21 21z m-21-149l-107 0 0 107 107 0z m21-85l-149 0c-13 0-22-9-22-22l0-149c0-13 9-21 22-21l149 0c13 0 21 8 21 21l0 149c0 13-8 22-21 22z m-21-150l-107 0 0 107 107 0z"/>
<glyph glyph-name="trash" unicode="&#68;" d="M448 405l-85 0 0 22c0 36-28 64-64 64l-86 0c-36 0-64-28-64-64l0-22-85 0c-13 0-21-8-21-21 0-13 8-21 21-21l21 0 0-278c0-36 28-64 64-64l214 0c36 0 64 28 64 64l0 278 21 0c13 0 21 8 21 21 0 13-8 21-21 21z m-256 22c0 12 9 21 21 21l86 0c12 0 21-9 21-21l0-22-128 0z m192-342c0-12-9-21-21-21l-214 0c-12 0-21 9-21 21l0 278 256 0z m-171 214c-12 0-21-9-21-22l0-128c0-12 9-21 21-21 13 0 22 9 22 21l0 128c0 13-9 22-22 22z m86 0c-13 0-22-9-22-22l0-128c0-12 9-21 22-21 12 0 21 9 21 21l0 128c0 13-9 22-21 22z"/>
<glyph glyph-name="draft" unicode="&#69;" d="M439 358l-123 124c-5 4-9 9-17 9l-171 0c-36 0-64-28-64-64l0-342c0-36 28-64 64-64l256 0c36 0 64 28 64 64l0 256c0 9-4 13-9 17z m-119 60l55-55-55 0z m64-354l-256 0c-13 0-21 9-21 21l0 342c0 12 8 21 21 21l149 0 0-107c0-12 9-21 22-21l106 0 0-235c0-12-8-21-21-21z m-171 277l-42 0c-13 0-22-8-22-21 0-13 9-21 22-21l42 0c13 0 22 8 22 21 0 13-9 21-22 21z m0-85l-42 0c-13 0-22-9-22-21 0-13 9-22 22-22l42 0c13 0 22 9 22 22 0 12-9 21-22 21z"/>
<glyph glyph-name="unlisted" unicode="&#70;" d="M149 448l128 0 0-107c0-12 9-21 22-21l106 0 0-149c0-13 9-22 22-22 12 0 21 9 21 22l0 170c0 9-4 13-9 17l-123 124c-5 4-9 9-17 9l-150 0c-12 0-21-9-21-22 0-12 9-21 21-21z m171-30l55-55-55 0z m173-373l-446 446c-9 8-21 8-30 0-8-9-8-22 0-30l47-47 0-307c0-47 38-86 85-86l214 0c25 0 49 13 64 30l36-36c4-4 11-6 15-6 4 0 11 2 15 6 8 8 8 21 0 30z m-130 19l-214 0c-23 0-42 19-42 43l0 264 44-45c-2 0-2-4-2-6 0-13 9-21 22-21l8 0 43-43-51 0c-13 0-22-9-22-21 0-13 9-22 22-22l94 0 42-42-136 0c-13 0-22-9-22-22 0-12 9-21 22-21l170 0c2 0 7 0 9 2l47-47c-9-13-19-19-34-19z"/>
<glyph glyph-name="published" unicode="&#71;" d="M439 358l-123 124c-5 4-9 9-17 9l-171 0c-36 0-64-28-64-64l0-342c0-36 28-64 64-64l256 0c36 0 64 28 64 64l0 256c0 9-4 13-9 17z m-119 60l55-55-55 0z m64-354l-256 0c-13 0-21 9-21 21l0 342c0 12 8 21 21 21l149 0 0-107c0-12 9-21 22-21l106 0 0-235c0-12-8-21-21-21z m-43 192l-170 0c-13 0-22-9-22-21 0-13 9-22 22-22l170 0c13 0 22 9 22 22 0 12-9 21-22 21z m0-85l-170 0c-13 0-22-9-22-22 0-12 9-21 22-21l170 0c13 0 22 9 22 21 0 13-9 22-22 22z m-170 128l42 0c13 0 22 8 22 21 0 13-9 21-22 21l-42 0c-13 0-22-8-22-21 0-13 9-21 22-21z"/>
<glyph glyph-name="shop" unicode="&#72;" d="M171 0c-37 0-64 28-64 64 0 36 27 64 64 64 36 0 64-28 64-64 0-36-28-64-64-64z m0 85c-13 0-22-8-22-21 0-13 9-21 22-21 12 0 21 8 21 21 0 13-9 21-21 21z m256-85c-37 0-64 28-64 64 0 36 27 64 64 64 36 0 64-28 64-64 0-36-28-64-64-64z m0 85c-13 0-22-8-22-21 0-13 9-21 22-21 12 0 21 8 21 21 0 13-9 21-21 21z m-13 64c-2 0-2 0 0 0l-226 0c-32 0-60 24-64 56l-34 245c0 11-11 19-22 19l-47 0c-12 0-21 9-21 22 0 12 9 21 21 21l47 0c32 0 60-23 64-55l7-52 352 0c6 0 12-2 17-8 4-4 4-11 4-17l-36-179c-7-30-32-52-62-52z m-2 43c10 0 19 6 21 17l32 154-320 0 19-152c2-10 11-19 22-19z"/>
<glyph glyph-name="award" unicode="&#73;" d="M256 171c-94 0-171 76-171 170 0 94 77 171 171 171 94 0 171-77 171-171 0-94-77-170-171-170z m0 298c-70 0-128-57-128-128 0-70 58-128 128-128 70 0 128 58 128 128 0 71-58 128-128 128z m107-469c-5 0-9 0-11 2l-96 58-96-58c-6-4-15-4-23 0-7 4-11 13-9 21l26 195c2 10 12 19 23 19 13-2 21-13 19-24l-19-151 68 40c7 5 15 5 22 0l68-40-19 151c-2 11 6 24 19 24 13 2 23-7 23-19l26-195c2-8-2-17-9-21-4 0-8-2-12-2z"/>
<glyph glyph-name="mail" unicode="&#74;" d="M427 448l-342 0c-36 0-64-28-64-64l0-256c0-36 28-64 64-64l342 0c36 0 64 28 64 64l0 256c0 36-28 64-64 64z m-342-43l342 0c8 0 15-4 19-12l-190-133-190 133c4 8 11 12 19 12z m342-298l-342 0c-12 0-21 8-21 21l0 215 179-125c4-3 9-5 13-5 4 0 9 2 13 5l179 125 0-215c0-13-9-21-21-21z"/>
<glyph glyph-name="link" unicode="&#75;" d="M299 171c-39 0-77 17-103 51-6 8-4 23 5 30 8 6 23 4 29-5 28-38 81-44 120-17 4 3 6 5 8 9l64 64c32 34 32 87-2 119-34 32-85 32-119 0l-36-36c-9-8-22-8-30 0-9 9-9 21 0 30l36 36c49 49 128 49 177 0 51-49 51-130 2-181l-64-64c-4-4-8-9-15-13-19-15-45-23-72-23z m-148-148c-32 0-64 13-89 37-51 49-51 130-2 181l64 64c4 2 8 6 13 11 27 21 61 30 93 23 35-4 64-23 84-49 6-8 4-23-5-30-8-6-23-4-30 5-12 19-34 29-55 34-23 4-45-2-64-17-4-3-6-5-9-9l-64-64c-32-34-32-87 3-119 34-32 85-32 119 0l36 36c9 8 22 8 30 0 9-9 9-21 0-30l-36-36c-24-26-56-37-88-37z"/>
</font>
</defs>
</svg>
