<svg version="1.1" xmlns:cc="http://creativecommons.org/ns#" xmlns:dc="http://purl.org/dc/elements/1.1/" xmlns:rdf="http://www.w3.org/1999/02/22-rdf-syntax-ns#" xmlns:svg="http://www.w3.org/2000/svg" xmlns="http://www.w3.org/2000/svg" xmlns:xlink="http://www.w3.org/1999/xlink" x="0px" y="0px" viewBox="0 0 300 44.2" style="enable-background:new 0 0 300 44.2;" xml:space="preserve">
  <path d="M207.1,25.9c3.1-7.5,6.2-14.7,6.3-14.9c0.2-0.4,0.5-0.6,1-0.6c0.2,0,0.7,0,1.3,0c0.5,0,1,0,1.2,0c0.4,0.1,0.8,0.3,1,0.7c0.8,2.1,3.4,8.4,6.1,14.8H207.1z M228.2,7.7c-3.1-7.1-1.9-6.3-8.7-6.6c-0.6,0-2-0.1-4-0.1c-2,0-2.6,0-4.1,0c-6.4,0.1-5.4-0.3-7.6,4.3c0,0-11,25.1-15.8,35.5l-0.2,0.4c-0.9,1.8-0.2,1.8,1.2,1.8l10,0c0.6,0,1.1-0.4,1.2-0.7c0,0,1.4-3.3,3.3-7.7h24.2c1.8,4.3,3.2,7.5,3.2,7.7c0.2,0.5,0.7,0.8,1.2,0.8l10.3,0c1.5,0,1.9,0.2,1.3-1.2C241.8,37.6,229.9,11.6,228.2,7.7 M73.4,1.1H63.3c-0.8,0-1,0.4-1,1.1v39.7c0,1.1,0.2,1.3,1.4,1.3h9.6c1.1,0,1.3-0.3,1.3-1.3V2.2C74.5,1.4,74.2,1.1,73.4,1.1 M50.8,1.1h-8.3c-1.1,0-1.3,0.3-1.3,1.3l0,31.5c0,0-16.6-25.9-18.8-29.2C20,0.8,19.1,1,11.8,1C4.6,1,2.3,1.1,2.3,1.1C1.2,1.1,1,1.3,1,2.3l0,39.5c0,1.1,0.2,1.3,1.3,1.3l8.3,0c1.1,0,1.3-0.3,1.3-1.3l0-31c0,0,13.6,21.4,18.2,28.6c2.3,3.6,2.7,3.7,9.4,3.7l11.2,0c1.1,0,1.3-0.2,1.3-1.3V2.3C52.1,1.3,51.9,1.1,50.8,1.1 M297.7,1.1h-8.3c-1.1,0-1.3,0.3-1.3,1.3l0,31.5c0,0-16.6-25.9-18.7-29.2C266.9,0.8,266,1,258.7,1c-7.2,0-9.5,0.1-9.5,0.1c-1.1,0-1.3,0.3-1.3,1.3l0,39.5c0,1.1,0.2,1.3,1.3,1.3l8.3,0c1.1,0,1.3-0.3,1.3-1.3l0-31c0,0,13.6,21.4,18.2,28.6c2.3,3.6,2.7,3.7,9.4,3.7l11.2,0c1.1,0,1.3-0.2,1.3-1.3V2.3C299,1.3,298.8,1.1,297.7,1.1 M116.7,17.2c-4-0.4-14.9-1.4-18.4-1.7c-1.3-0.1-1.7-0.9-1.8-1.7c-0.1-0.4-0.1-0.7-0.1-0.9c0-0.4,0-0.6,0.1-0.9c0.1-1.2,0.7-1.7,2-1.7c0.8,0,29.5,0,29.5,0c1.1,0,1.3-0.2,1.3-1.3V2.2c0-1-0.3-1.2-1.3-1.2H98.1c-7.8,0-12.2,2.8-13.4,8.7c-0.3,1.3-0.3,2.9-0.3,4.1c0,1.4,0.1,2.8,0.2,3.9c0.5,3.4,2.5,7.3,11.5,8.2c7.1,0.7,17.4,1.6,20.8,1.9c1.6,0.1,1.8,1.3,1.9,2c0,0.3,0.1,0.6,0.1,1.1c0,0.4,0,0.9-0.1,1.6c-0.1,0.9-0.5,1.4-1.7,1.4H85.9c-1.1,0-1.3,0.2-1.3,1.3v6.7c0,1.1,0.3,1.3,1.3,1.3h30.9c7.6,0,12.7-1.3,14-7.9c0.3-1.4,0.3-3.2,0.3-4.5c0-2-0.1-3.8-0.3-4.4C129.4,19.3,124.2,17.9,116.7,17.2 M170.9,17.2c-4-0.4-14.9-1.4-18.4-1.7c-1.3-0.1-1.7-0.9-1.8-1.7c0-0.4,0-0.7,0-0.9c0-0.4,0-0.6,0-0.9c0.1-1.2,0.7-1.7,2-1.7c0.8,0,29.5,0,29.5,0c1.1,0,1.3-0.2,1.3-1.3V2.2c0-1-0.3-1.2-1.3-1.2h-29.9c-7.8,0-12.2,2.8-13.4,8.7c-0.3,1.3-0.3,2.9-0.3,4.1c0,1.4,0.1,2.8,0.2,3.9c0.5,3.4,2.5,7.3,11.5,8.2c7.1,0.7,17.4,1.6,20.9,1.9c1.6,0.1,1.8,1.3,1.9,2c0,0.3,0.1,0.6,0.1,1.1c0,0.4,0,0.9-0.1,1.6c-0.1,0.9-0.5,1.4-1.7,1.4h-31.3c-1.1,0-1.3,0.2-1.3,1.3l0,6.7c0,1.1,0.3,1.3,1.3,1.3h30.9c7.6,0,12.6-1.3,14-7.9c0.3-1.4,0.3-3.2,0.3-4.5c0-2-0.1-3.8-0.3-4.4C183.6,19.3,178.4,17.9,170.9,17.2"/>
</svg>
