<svg xmlns="http://www.w3.org/2000/svg" xmlns:xlink="http://www.w3.org/1999/xlink" version="1.1" width="1040pt" height="1210pt" viewBox="0 0 1040 1210">
<g enable-background="new">
<g id="Layer-1" data-name="Layer">
<clipPath id="cp0">
<path transform="matrix(1,0,0,-1,0,1210)" d="M 0 1210 L 1040 1210 L 1040 0 L 0 0 Z "/>
</clipPath>
<g clip-path="url(#cp0)">
<path transform="matrix(1,0,0,-1,973.7822,400.84809)" d="M 0 0 C -1.838 -9.534 -5.839 -18.648 -11.696 -26.4 C -21.45 -39.297 -38.574 -48.489 -53.844 -43.13 C -62.503 -40.086 -69.125 -35.122 -73.976 -28.899 C -70.033 -25.047 -66.905 -20.844 -65.133 -16.364 C -65.134 -16.354 -65.124 -16.352 -65.114 -16.34 C -57.512 -3.825 -53.458 7.494 -55.591 21.982 C -56.973 31.384 -60.435 40.335 -64.194 49.059 C -65.552 52.229 -66.967 55.403 -68.547 58.475 C -66.564 61.204 -64.461 63.704 -62.231 65.918 C -55.007 73.064 -45.45 79.036 -35.328 78.068 C -27.07 77.273 -19.781 71.889 -14.907 65.185 C -10.031 58.469 -7.224 50.501 -4.73 42.59 C -1.885 33.526 .661 24.268 1.095 14.774 C 1.315 9.825 .943 4.863 0 0 " fill="#f6f9fc"/>
<path transform="matrix(1,0,0,-1,899.8066,429.747)" d="M 0 0 C 4.851 -6.223 11.472 -11.188 20.132 -14.231 C 35.402 -19.59 52.526 -10.398 62.279 2.499 C 68.137 10.25 72.137 19.365 73.976 28.899 C 79.733 12.261 80.693 -6.067 76.026 -23.053 C 69.712 -46.047 48.815 -64.891 29.806 -77.826 C 8.339 -92.436 -17.465 -97.333 -43.052 -97.59 C -45.261 -97.614 -47.525 -97.621 -49.816 -97.587 C -49.827 -97.588 -49.827 -97.588 -49.838 -97.589 C -65.227 -97.433 -82.016 -95.859 -94.964 -87.639 C -116.228 -74.11 -130.275 -47.366 -123.433 -23.113 C -121.405 -15.903 -117.713 -9.314 -113.125 -3.355 C -110.22 .419 -106.959 3.931 -103.521 7.196 C -85.555 24.253 -62.138 35.487 -37.581 38.813 C -36.907 38.899 -36.191 39 -35.464 39.103 C -22.333 40.941 -.991 44.08 6.01 33.884 C 11.145 26.413 11.493 19.199 8.862 12.559 C 8.852 12.547 8.841 12.545 8.842 12.535 C 7.071 8.055 3.942 3.852 0 0 M -45.353 -22.887 C -46.25 -22.939 -47.155 -23.015 -48.072 -23.091 C -47.28 -23.093 -46.362 -23.027 -45.353 -22.887 " fill="#f6f9fc"/>
<path transform="matrix(1,0,0,-1,905.2354,342.37348)" d="M 0 0 C 1.58 -3.071 2.995 -6.246 4.353 -9.416 C 8.112 -18.14 11.574 -27.09 12.956 -36.493 C 15.089 -50.981 11.035 -62.3 3.433 -74.815 C 6.064 -68.174 5.716 -60.96 .582 -53.489 C -6.419 -43.293 -27.762 -46.433 -40.893 -48.271 L -40.941 -47.879 C -43.552 -38.737 -48.172 -30.326 -53.042 -22.17 C -56.304 -16.697 -59.762 -11.232 -64.049 -6.539 C -61.579 -1.08 -58.609 3.856 -55.199 7.987 C -48.735 15.841 -39.827 22.74 -29.661 22.799 C -21.362 22.845 -13.574 18.222 -8.046 12.042 C -4.808 8.426 -2.238 4.317 0 0 " fill="#f6f9fc"/>
<path transform="matrix(1,0,0,-1,864.2944,390.25239)" d="M 0 0 L .048 -.392 C -.679 -.494 -1.395 -.595 -2.068 -.682 C -26.626 -4.007 -50.042 -15.241 -68.009 -32.299 C -71.447 -35.564 -74.708 -39.076 -77.613 -42.85 C -89.123 -19.075 -85.747 15.338 -73.43 35.123 C -68.052 43.752 -60.129 51.757 -50.059 53.159 C -41.843 54.307 -33.508 50.749 -27.219 45.346 C -25.758 44.1 -24.398 42.756 -23.108 41.34 C -18.821 36.646 -15.363 31.182 -12.102 25.709 C -7.231 17.553 -2.611 9.142 0 0 " fill="#f6f9fc"/>
<path transform="matrix(1,0,0,-1,849.9907,527.3344)" stroke-width="10.849" stroke-linecap="round" stroke-linejoin="round" fill="none" stroke="#000000" d="M 0 0 C 2.291 -.034 4.555 -.026 6.764 -.002 C 32.351 .255 58.155 5.151 79.622 19.761 C 98.631 32.696 119.528 51.541 125.842 74.534 C 130.509 91.52 129.549 109.848 123.792 126.486 C 123.779 126.496 123.779 126.496 123.778 126.507 "/>
<path transform="matrix(1,0,0,-1,908.6685,417.18843)" stroke-width="10.849" stroke-linecap="round" stroke-linejoin="round" fill="none" stroke="#000000" d="M 0 0 C 2.631 6.641 2.283 13.854 -2.852 21.326 C -9.853 31.521 -31.195 28.382 -44.326 26.544 C -45.053 26.442 -45.769 26.341 -46.442 26.254 C -71 22.929 -94.417 11.695 -112.383 -5.363 C -115.821 -8.628 -119.082 -12.14 -121.987 -15.914 C -126.575 -21.873 -130.267 -28.461 -132.294 -35.671 C -139.137 -59.925 -125.089 -86.669 -103.826 -100.197 C -90.877 -108.417 -74.088 -109.991 -58.7 -110.148 "/>
<path transform="matrix(1,0,0,-1,854.4536,452.63374)" stroke-width="10.849" stroke-linecap="round" stroke-linejoin="round" fill="none" stroke="#000000" d="M 0 0 C 10.666 1.394 32.371 10.176 45.353 22.887 C 49.295 26.738 52.424 30.941 54.195 35.421 "/>
<path transform="matrix(1,0,0,-1,854.4536,452.63374)" stroke-width="10.849" stroke-linecap="round" stroke-linejoin="round" fill="none" stroke="#000000" d="M 0 0 C -.897 -.053 -1.802 -.128 -2.719 -.205 C -1.927 -.206 -1.009 -.14 0 0 Z "/>
<path transform="matrix(1,0,0,-1,901.7285,485.18653)" d="M 0 0 C -3.242 4.631 -6.06 9.073 -9.284 12.812 C -12.47 16.559 -15.848 19.618 -19.69 21.67 C -23.526 23.737 -27.783 24.965 -32.385 25.723 C -36.987 26.479 -41.873 26.749 -46.937 27.139 L -47.081 27.15 C -50.087 27.381 -52.336 30.005 -52.104 33.011 C -51.91 35.546 -50.007 37.543 -47.613 37.967 C -42.066 38.948 -36.252 39.106 -30.348 38.165 C -24.474 37.238 -18.421 35.034 -13.349 31.243 C -8.22 27.511 -4.549 22.197 -2.443 16.763 C -1.961 15.376 -1.4 14.036 -1.116 12.619 C -.941 11.923 -.783 11.224 -.632 10.528 C -.559 10.18 -.473 9.836 -.413 9.487 L -.277 8.428 C -.111 7.018 .083 5.63 .106 4.22 C .107 2.802 .109 1.404 0 0 " fill="#000000"/>
<path transform="matrix(1,0,0,-1,786.6816,433.10249)" stroke-width="10.849" stroke-linecap="round" stroke-linejoin="round" fill="none" stroke="#000000" d="M 0 0 C -11.51 23.775 -8.134 58.188 4.183 77.973 C 9.561 86.603 17.483 94.607 27.554 96.009 C 35.77 97.157 44.104 93.599 50.394 88.196 C 51.855 86.95 53.215 85.606 54.505 84.19 C 58.792 79.497 62.25 74.032 65.511 68.559 C 70.382 60.403 75.001 51.992 77.613 42.85 "/>
<path transform="matrix(1,0,0,-1,841.1865,348.91249)" stroke-width="10.849" stroke-linecap="round" stroke-linejoin="round" fill="none" stroke="#000000" d="M 0 0 C 2.47 5.459 5.44 10.395 8.85 14.526 C 15.313 22.38 24.222 29.279 34.388 29.338 C 42.687 29.384 50.475 24.761 56.003 18.582 C 59.241 14.965 61.811 10.856 64.049 6.539 C 65.629 3.468 67.043 .293 68.402 -2.876 C 72.161 -11.601 75.623 -20.551 77.005 -29.954 C 79.138 -44.442 75.083 -55.761 67.482 -68.276 C 67.472 -68.288 67.461 -68.289 67.462 -68.3 "/>
<path transform="matrix(1,0,0,-1,905.2256,342.38569)" stroke-width="10.849" stroke-linecap="round" stroke-linejoin="round" fill="none" stroke="#000000" d="M 0 0 L .01 .012 C 1.992 2.742 4.096 5.241 6.326 7.456 C 13.549 14.602 23.107 20.574 33.229 19.605 C 41.487 18.811 48.775 13.426 53.65 6.722 C 58.526 .007 61.333 -7.961 63.826 -15.872 C 66.672 -24.937 69.217 -34.195 69.652 -43.688 C 69.872 -48.637 69.5 -53.6 68.557 -58.462 C 66.718 -67.997 62.718 -77.111 56.86 -84.862 C 47.107 -97.759 29.983 -106.951 14.713 -101.592 C 6.053 -98.549 -.568 -93.584 -5.419 -87.361 "/>
<path transform="matrix(1,0,0,-1,862.0811,562.4433)" d="M 0 0 C -2.258 .227 -4.501 .546 -6.725 .97 C -19.587 3.42 -29.231 14.744 -26.408 28.13 C -23.119 43.721 -7.521 50.865 6.528 54.3 C 20.02 57.599 34.292 59.049 48.118 60.216 C 59.099 61.143 72.775 61.21 80.924 52.491 C 87.987 44.934 86.204 31.748 81.094 23.635 C 66.818 .968 23.692 -2.381 0 0 " fill="#f6f9fc"/>
<path transform="matrix(1,0,0,-1,862.0811,562.4433)" stroke-width="10.849" stroke-linecap="round" stroke-linejoin="round" fill="none" stroke="#000000" d="M 0 0 C -2.258 .227 -4.501 .546 -6.725 .97 C -19.587 3.42 -29.231 14.744 -26.408 28.13 C -23.119 43.721 -7.521 50.865 6.528 54.3 C 20.02 57.599 34.292 59.049 48.118 60.216 C 59.099 61.143 72.775 61.21 80.924 52.491 C 87.987 44.934 86.204 31.748 81.094 23.635 C 66.818 .968 23.692 -2.381 0 0 Z "/>
<path transform="matrix(1,0,0,-1,800.6343,380.9521)" d="M 0 0 C -.845 -24.068 6.304 -32.632 6.304 -32.632 " fill="#f6f9fc"/>
<path transform="matrix(1,0,0,-1,800.6343,380.9521)" d="M 0 0 L .611 -4.213 L 1.391 -8.367 C 2.009 -11.106 2.663 -13.808 3.549 -16.4 C 4.397 -18.996 5.407 -21.504 6.618 -23.794 C 7.221 -24.937 7.867 -26.03 8.56 -27.017 L 9.082 -27.739 L 9.618 -28.396 C 9.796 -28.592 9.977 -28.791 10.146 -28.959 C 10.279 -29.075 10.569 -29.373 10.468 -29.156 C 12.388 -31.457 12.08 -34.877 9.779 -36.797 C 7.479 -38.716 4.059 -38.408 2.139 -36.108 C 1.602 -35.34 1.508 -35.049 1.261 -34.573 C 1.061 -34.144 .889 -33.734 .719 -33.321 L .275 -32.111 L -.093 -30.922 C -.554 -29.346 -.881 -27.798 -1.135 -26.265 C -1.641 -23.199 -1.819 -20.193 -1.811 -17.234 C -1.838 -14.276 -1.599 -11.363 -1.319 -8.493 L -.745 -4.218 Z " fill="#000000"/>
<path transform="matrix(1,0,0,-1,541.9355,784.6034)" stroke-width="43.396" stroke-linecap="round" stroke-linejoin="round" fill="none" stroke="#000000" d="M 0 0 C -76.905 -167.998 -315.717 -235.236 -315.717 -235.236 "/>
<path transform="matrix(1,0,0,-1,344.6196,855.19229)" d="M 0 0 C 114.324 -19.148 279.415 .612 393.5 69.384 L 385.129 150.101 L -20.413 81.388 Z " fill="#f6f9fc"/>
<path transform="matrix(1,0,0,-1,344.6196,855.19229)" stroke-width="10.849" stroke-linecap="round" stroke-linejoin="round" fill="none" stroke="#000000" d="M 0 0 C 114.324 -19.148 279.415 .612 393.5 69.384 L 385.129 150.101 L -20.413 81.388 L 0 0 Z "/>
<path transform="matrix(1,0,0,-1,340.6435,828.37)" d="M 0 0 C 114.324 -19.148 279.415 .613 393.5 69.384 L 385.129 150.101 L -20.413 81.389 Z " fill="#000000"/>
<path transform="matrix(1,0,0,-1,340.6435,828.37)" stroke-width="10.849" stroke-linecap="round" stroke-linejoin="round" fill="none" stroke="#000000" d="M 0 0 C 114.324 -19.148 279.415 .613 393.5 69.384 L 385.129 150.101 L -20.413 81.389 L 0 0 Z "/>
</g>
<clipPath id="cp1">
<path transform="matrix(1,0,0,-1,0,1210)" d="M 64.911 45.942 C 64.911 23.19 218.956 4.746 408.979 4.746 C 599.002 4.746 753.046 23.19 753.046 45.942 C 753.046 68.693 599.002 87.137 408.979 87.137 C 218.956 87.137 64.911 68.693 64.911 45.942 "/>
</clipPath>
<g clip-path="url(#cp1)">
<path transform="matrix(1,0,0,-1,207.8537,1022.0063)" stroke-width="6.529" stroke-linecap="round" stroke-linejoin="round" fill="none" stroke="#000000" d="M 0 0 L -284.627 -284.627 "/>
<path transform="matrix(1,0,0,-1,245.9585,1022.0063)" stroke-width="6.529" stroke-linecap="round" stroke-linejoin="round" fill="none" stroke="#000000" d="M 0 0 L -284.627 -284.627 "/>
<path transform="matrix(1,0,0,-1,284.063,1022.0063)" stroke-width="6.529" stroke-linecap="round" stroke-linejoin="round" fill="none" stroke="#000000" d="M 0 0 L -284.627 -284.627 "/>
<path transform="matrix(1,0,0,-1,322.1674,1022.0063)" stroke-width="6.529" stroke-linecap="round" stroke-linejoin="round" fill="none" stroke="#000000" d="M 0 0 L -284.627 -284.627 "/>
<path transform="matrix(1,0,0,-1,360.2719,1022.0063)" stroke-width="6.529" stroke-linecap="round" stroke-linejoin="round" fill="none" stroke="#000000" d="M 0 0 L -284.627 -284.627 "/>
<path transform="matrix(1,0,0,-1,398.3769,1022.0063)" stroke-width="6.529" stroke-linecap="round" stroke-linejoin="round" fill="none" stroke="#000000" d="M 0 0 L -284.627 -284.627 "/>
<path transform="matrix(1,0,0,-1,436.4814,1022.0063)" stroke-width="6.529" stroke-linecap="round" stroke-linejoin="round" fill="none" stroke="#000000" d="M 0 0 L -284.627 -284.627 "/>
<path transform="matrix(1,0,0,-1,474.5859,1022.0063)" stroke-width="6.529" stroke-linecap="round" stroke-linejoin="round" fill="none" stroke="#000000" d="M 0 0 L -284.627 -284.627 "/>
<path transform="matrix(1,0,0,-1,512.6904,1022.0063)" stroke-width="6.529" stroke-linecap="round" stroke-linejoin="round" fill="none" stroke="#000000" d="M 0 0 L -284.627 -284.627 "/>
<path transform="matrix(1,0,0,-1,550.7949,1022.0063)" stroke-width="6.529" stroke-linecap="round" stroke-linejoin="round" fill="none" stroke="#000000" d="M 0 0 L -284.627 -284.627 "/>
<path transform="matrix(1,0,0,-1,588.8994,1022.0063)" stroke-width="6.529" stroke-linecap="round" stroke-linejoin="round" fill="none" stroke="#000000" d="M 0 0 L -284.626 -284.627 "/>
<path transform="matrix(1,0,0,-1,627.0044,1022.0063)" stroke-width="6.529" stroke-linecap="round" stroke-linejoin="round" fill="none" stroke="#000000" d="M 0 0 L -284.627 -284.627 "/>
<path transform="matrix(1,0,0,-1,665.1089,1022.0063)" stroke-width="6.529" stroke-linecap="round" stroke-linejoin="round" fill="none" stroke="#000000" d="M 0 0 L -284.627 -284.627 "/>
<path transform="matrix(1,0,0,-1,703.2134,1022.0063)" stroke-width="6.529" stroke-linecap="round" stroke-linejoin="round" fill="none" stroke="#000000" d="M 0 0 L -284.627 -284.627 "/>
<path transform="matrix(1,0,0,-1,741.3179,1022.0063)" stroke-width="6.529" stroke-linecap="round" stroke-linejoin="round" fill="none" stroke="#000000" d="M 0 0 L -284.627 -284.627 "/>
<path transform="matrix(1,0,0,-1,779.4224,1022.0063)" stroke-width="6.529" stroke-linecap="round" stroke-linejoin="round" fill="none" stroke="#000000" d="M 0 0 L -284.626 -284.627 "/>
<path transform="matrix(1,0,0,-1,817.5273,1022.0063)" stroke-width="6.529" stroke-linecap="round" stroke-linejoin="round" fill="none" stroke="#000000" d="M 0 0 L -284.627 -284.627 "/>
<path transform="matrix(1,0,0,-1,855.6318,1022.0063)" stroke-width="6.529" stroke-linecap="round" stroke-linejoin="round" fill="none" stroke="#000000" d="M 0 0 L -284.627 -284.627 "/>
<path transform="matrix(1,0,0,-1,893.7363,1022.0063)" stroke-width="6.529" stroke-linecap="round" stroke-linejoin="round" fill="none" stroke="#000000" d="M 0 0 L -284.627 -284.627 "/>
<path transform="matrix(1,0,0,-1,609.1094,1022.0063)" stroke-width="6.529" stroke-linecap="round" stroke-linejoin="round" fill="none" stroke="#000000" d="M 0 0 L 284.627 -284.627 "/>
<path transform="matrix(1,0,0,-1,571.0049,1022.0063)" stroke-width="6.529" stroke-linecap="round" stroke-linejoin="round" fill="none" stroke="#000000" d="M 0 0 L 284.627 -284.627 "/>
<path transform="matrix(1,0,0,-1,532.9004,1022.0063)" stroke-width="6.529" stroke-linecap="round" stroke-linejoin="round" fill="none" stroke="#000000" d="M 0 0 L 284.627 -284.627 "/>
<path transform="matrix(1,0,0,-1,494.7959,1022.0063)" stroke-width="6.529" stroke-linecap="round" stroke-linejoin="round" fill="none" stroke="#000000" d="M 0 0 L 284.626 -284.627 "/>
<path transform="matrix(1,0,0,-1,456.6909,1022.0063)" stroke-width="6.529" stroke-linecap="round" stroke-linejoin="round" fill="none" stroke="#000000" d="M 0 0 L 284.627 -284.627 "/>
<path transform="matrix(1,0,0,-1,418.5864,1022.0063)" stroke-width="6.529" stroke-linecap="round" stroke-linejoin="round" fill="none" stroke="#000000" d="M 0 0 L 284.627 -284.627 "/>
<path transform="matrix(1,0,0,-1,380.4819,1022.0063)" stroke-width="6.529" stroke-linecap="round" stroke-linejoin="round" fill="none" stroke="#000000" d="M 0 0 L 284.627 -284.627 "/>
<path transform="matrix(1,0,0,-1,342.3774,1022.0063)" stroke-width="6.529" stroke-linecap="round" stroke-linejoin="round" fill="none" stroke="#000000" d="M 0 0 L 284.627 -284.627 "/>
<path transform="matrix(1,0,0,-1,304.2729,1022.0063)" stroke-width="6.529" stroke-linecap="round" stroke-linejoin="round" fill="none" stroke="#000000" d="M 0 0 L 284.626 -284.627 "/>
<path transform="matrix(1,0,0,-1,266.1682,1022.0063)" stroke-width="6.529" stroke-linecap="round" stroke-linejoin="round" fill="none" stroke="#000000" d="M 0 0 L 284.627 -284.627 "/>
<path transform="matrix(1,0,0,-1,228.0635,1022.0063)" stroke-width="6.529" stroke-linecap="round" stroke-linejoin="round" fill="none" stroke="#000000" d="M 0 0 L 284.627 -284.627 "/>
<path transform="matrix(1,0,0,-1,189.959,1022.0063)" stroke-width="6.529" stroke-linecap="round" stroke-linejoin="round" fill="none" stroke="#000000" d="M 0 0 L 284.627 -284.627 "/>
<path transform="matrix(1,0,0,-1,151.8545,1022.0063)" stroke-width="6.529" stroke-linecap="round" stroke-linejoin="round" fill="none" stroke="#000000" d="M 0 0 L 284.627 -284.627 "/>
<path transform="matrix(1,0,0,-1,113.7497,1022.0063)" stroke-width="6.529" stroke-linecap="round" stroke-linejoin="round" fill="none" stroke="#000000" d="M 0 0 L 284.627 -284.627 "/>
<path transform="matrix(1,0,0,-1,75.6452,1022.0063)" stroke-width="6.529" stroke-linecap="round" stroke-linejoin="round" fill="none" stroke="#000000" d="M 0 0 L 284.627 -284.627 "/>
<path transform="matrix(1,0,0,-1,37.5408,1022.0063)" stroke-width="6.529" stroke-linecap="round" stroke-linejoin="round" fill="none" stroke="#000000" d="M 0 0 L 284.627 -284.627 "/>
<path transform="matrix(1,0,0,-1,-.564,1022.0063)" stroke-width="6.529" stroke-linecap="round" stroke-linejoin="round" fill="none" stroke="#000000" d="M 0 0 L 284.627 -284.627 "/>
<path transform="matrix(1,0,0,-1,-38.6685,1022.0063)" stroke-width="6.529" stroke-linecap="round" stroke-linejoin="round" fill="none" stroke="#000000" d="M 0 0 L 284.627 -284.627 "/>
<path transform="matrix(1,0,0,-1,-76.773,1022.0063)" stroke-width="6.529" stroke-linecap="round" stroke-linejoin="round" fill="none" stroke="#000000" d="M 0 0 L 284.627 -284.627 "/>
</g>
<clipPath id="cp2">
<path transform="matrix(1,0,0,-1,0,1210)" d="M 0 1210 L 1040 1210 L 1040 0 L 0 0 Z "/>
</clipPath>
<g clip-path="url(#cp2)">
<path transform="matrix(1,0,0,-1,730.6245,693.9965)" d="M 0 0 C -8.629 0 -17.453 .293 -26.465 .882 C -38.423 1.663 -47.484 11.99 -46.703 23.948 C -45.923 35.906 -35.602 44.968 -23.637 44.187 C 42.579 39.859 95.948 53.394 122.785 81.313 C 132.276 91.187 138.67 103.449 141.382 116.87 C 142.903 124.396 143.028 131.892 142.988 139.535 C 142.953 146.297 141.22 153.556 145.764 159.351 C 148.483 162.818 152.584 164.993 156.833 166.165 C 161.082 167.337 165.521 167.594 169.921 167.845 C 171.493 167.934 173.091 168.022 174.625 167.669 C 178.058 166.881 180.682 163.959 182.042 160.711 C 196.859 125.336 179.243 77.426 154.071 51.239 C 134.884 31.278 107.99 16.879 74.135 8.44 C 51.601 2.824 26.751 0 0 0 " fill="#000000"/>
<path transform="matrix(1,0,0,-1,423.7832,59.421266)" d="M 0 0 C 9.679 -13.534 22.634 -24.708 37.443 -32.294 C 48.8 -38.113 64.111 -41.23 73.2 -32.273 C 78.566 -26.983 80.074 -18.718 78.91 -11.274 C 77.746 -3.834 74.277 3.018 70.839 9.718 C 61.831 27.278 45.759 43.156 24.513 43.667 C -2.427 44.314 -15.569 21.772 0 0 M -184.494 -2.072 C -174.891 -4.423 -165.011 -5.601 -155.125 -5.725 C -146.024 -5.839 -135.714 -4.434 -130.343 2.913 C -105.721 36.59 -174.751 60.51 -198.276 53.429 C -238.533 41.312 -214.074 5.171 -184.494 -2.072 M 143.26 -82.423 C 121.593 -77.822 99.634 -88.088 77.492 -88.701 C 49.41 -89.478 23.572 -74.894 -1.791 -62.814 C -27.154 -50.735 -56.557 -40.727 -82.802 -50.745 C -104.268 -58.939 -119.179 -79.024 -139.971 -88.803 C -172.337 -104.024 -211.489 -91.412 -245.759 -101.651 C -264.024 -107.109 -280.431 -119.431 -289.479 -136.211 C -298.527 -152.99 -299.662 -174.156 -291.156 -191.217 C -276.827 -219.956 -239.035 -230.593 -207.833 -223.001 C -176.631 -215.408 -150.896 -193.814 -127.776 -171.527 C -118.288 -162.381 -108.217 -152.562 -95.28 -150.054 C -74.389 -146.005 -55.256 -162.207 -34.357 -166.209 C 18.731 -176.376 64.278 -107.699 116.854 -120.253 C 122.855 -121.686 128.888 -124.411 132.447 -129.451 C 136.355 -134.986 136.642 -142.324 139.82 -148.309 C 152.324 -171.852 183.379 -154.442 184.703 -133.216 C 186.067 -111.335 163.442 -86.708 143.26 -82.423 " fill="#000000"/>
<path transform="matrix(1,0,0,-1,423.7832,59.421266)" stroke-width="10.114" stroke-linecap="round" stroke-linejoin="round" fill="none" stroke="#f6f9fc" d="M 0 0 C 9.679 -13.534 22.634 -24.708 37.443 -32.294 C 48.8 -38.113 64.111 -41.23 73.2 -32.273 C 78.566 -26.983 80.074 -18.718 78.91 -11.274 C 77.746 -3.834 74.277 3.018 70.839 9.718 C 61.831 27.278 45.759 43.156 24.513 43.667 C -2.427 44.314 -15.569 21.772 0 0 Z M -184.494 -2.072 C -174.891 -4.423 -165.011 -5.601 -155.125 -5.725 C -146.024 -5.839 -135.714 -4.434 -130.343 2.913 C -105.721 36.59 -174.751 60.51 -198.276 53.429 C -238.533 41.312 -214.074 5.171 -184.494 -2.072 Z M 143.26 -82.423 C 121.593 -77.822 99.634 -88.088 77.492 -88.701 C 49.41 -89.478 23.572 -74.894 -1.791 -62.814 C -27.154 -50.735 -56.557 -40.727 -82.802 -50.745 C -104.268 -58.939 -119.179 -79.024 -139.971 -88.803 C -172.337 -104.024 -211.489 -91.412 -245.759 -101.651 C -264.024 -107.109 -280.431 -119.431 -289.479 -136.211 C -298.527 -152.99 -299.662 -174.156 -291.156 -191.217 C -276.827 -219.956 -239.035 -230.593 -207.833 -223.001 C -176.631 -215.408 -150.896 -193.814 -127.776 -171.527 C -118.288 -162.381 -108.217 -152.562 -95.28 -150.054 C -74.389 -146.005 -55.256 -162.207 -34.357 -166.209 C 18.731 -176.376 64.278 -107.699 116.854 -120.253 C 122.855 -121.686 128.888 -124.411 132.447 -129.451 C 136.355 -134.986 136.642 -142.324 139.82 -148.309 C 152.324 -171.852 183.379 -154.442 184.703 -133.216 C 186.067 -111.335 163.442 -86.708 143.26 -82.423 Z "/>
<path transform="matrix(1,0,0,-1,738.1191,785.808)" d="M 0 0 C -126.251 8.14 -257.573 -15.978 -393.5 -69.384 L -515.054 415.267 L -51.537 496.997 Z " fill="#f6f9fc"/>
<path transform="matrix(1,0,0,-1,738.1191,785.808)" stroke-width="10.849" stroke-linecap="round" stroke-linejoin="round" fill="none" stroke="#000000" d="M 0 0 C -126.251 8.14 -257.573 -15.978 -393.5 -69.384 L -515.054 415.267 L -51.537 496.997 L 0 0 Z "/>
<path transform="matrix(1,0,0,-1,153.0593,459.16993)" d="M 0 0 C -.893 1.865 -1.763 3.737 -2.553 5.628 C -3.356 7.516 -4.174 9.4 -4.922 11.302 C -5.69 13.199 -6.415 15.107 -7.142 17.014 C -7.85 18.926 -8.571 20.834 -9.24 22.756 L -8.619 21.484 C -16.403 29.734 -22.484 39.699 -26.541 50.433 C -30.576 61.18 -32.582 72.722 -32.348 84.181 C -32.29 87.046 -32.056 89.902 -31.743 92.739 C -31.564 94.157 -31.355 95.568 -31.116 96.974 C -30.894 98.362 -30.572 99.842 -30.318 101.15 C -29.268 106.515 -28.168 111.873 -27.017 117.223 C -24.704 127.922 -22.243 138.597 -19.289 149.196 C -19.473 138.195 -20.147 127.269 -20.972 116.367 C -21.389 110.917 -21.857 105.474 -22.375 100.039 L -22.469 99.02 L -22.502 98.043 C -22.522 97.39 -22.578 96.751 -22.584 96.092 C -22.628 94.784 -22.644 93.476 -22.633 92.17 C -22.65 89.561 -22.538 86.958 -22.395 84.366 C -21.74 74 -19.789 63.796 -16.569 53.957 C -13.339 44.116 -8.837 34.673 -3.214 25.696 L -2.855 25.122 C -2.719 24.905 -2.632 24.661 -2.593 24.423 C -2.277 22.413 -2.011 20.39 -1.733 18.371 C -1.474 16.346 -1.213 14.322 -.995 12.287 C -.757 10.257 -.589 8.21 -.406 6.167 C -.21 4.126 -.093 2.066 0 0 " fill="#000000"/>
<path transform="matrix(1,0,0,-1,193.2983,474.8393)" d="M 0 0 C -1.159 2.643 -2.253 5.303 -3.288 7.977 C -4.352 10.644 -5.366 13.324 -6.351 16.011 C -8.33 21.382 -10.162 26.791 -11.956 32.209 C -13.718 37.635 -15.437 43.072 -17.046 48.536 C -17.863 51.265 -18.666 53.998 -19.431 56.74 C -20.213 59.478 -20.987 62.217 -21.718 64.968 L -20.272 62.466 C -27.835 69.489 -33.489 78.576 -36.511 88.45 C -38.029 93.385 -38.863 98.515 -39.044 103.643 C -39.131 106.207 -39.027 108.771 -38.789 111.31 C -38.678 112.567 -38.506 113.873 -38.295 115.069 C -38.067 116.29 -37.929 117.434 -37.757 118.608 C -36.415 127.955 -34.97 137.293 -33.348 146.617 C -32.522 151.277 -31.695 155.939 -30.768 160.592 L -29.371 167.572 C -28.856 169.895 -28.389 172.222 -27.833 174.541 C -27.747 172.158 -27.749 169.783 -27.704 167.402 L -27.716 160.274 C -27.728 155.522 -27.84 150.778 -27.954 146.034 C -28.21 136.547 -28.645 127.074 -29.182 117.61 L -29.39 114.1 C -29.456 112.95 -29.486 111.899 -29.498 110.797 C -29.521 108.619 -29.394 106.448 -29.169 104.296 C -28.728 99.993 -27.781 95.769 -26.406 91.705 C -23.633 83.579 -18.989 76.149 -12.959 70.029 L -12.816 69.884 C -12.155 69.212 -11.718 68.381 -11.513 67.527 C -10.859 64.757 -10.249 61.977 -9.646 59.194 C -9.027 56.415 -8.445 53.627 -7.878 50.835 C -6.718 45.258 -5.667 39.654 -4.66 34.039 C -3.684 28.416 -2.747 22.782 -1.957 17.113 C -1.557 14.279 -1.187 11.438 -.866 8.584 C -.516 5.738 -.226 2.877 0 0 " fill="#000000"/>
<path transform="matrix(1,0,0,-1,193.3418,329.54884)" d="M 0 0 C -7.793 -2.187 -15.635 -3.779 -23.49 -5.191 C -31.348 -6.58 -39.225 -7.734 -47.117 -8.688 C -55.009 -9.651 -62.931 -10.249 -70.876 -10.543 C -78.824 -10.814 -86.777 -11.021 -94.713 -11.427 L -118.526 -12.607 L -142.353 -13.625 L -166.19 -14.499 L -178.11 -14.933 L -190.035 -15.283 C -190.335 -15.292 -190.585 -15.056 -190.594 -14.756 C -190.603 -14.476 -190.394 -14.239 -190.123 -14.202 L -178.294 -12.642 L -166.458 -11.166 L -142.788 -8.218 L -119.105 -5.416 L -95.409 -2.775 C -87.51 -1.908 -79.626 -.84 -71.737 .163 C -63.847 1.141 -55.932 1.817 -47.987 2.127 C -40.043 2.447 -32.084 2.566 -24.105 2.452 C -16.125 2.313 -8.13 1.995 -.087 1.081 C .216 1.047 .434 .773 .4 .47 C .374 .24 .21 .059 0 0 " fill="#000000"/>
<path transform="matrix(1,0,0,-1,204.3772,422.12843)" d="M 0 0 C -6.856 -1.555 -13.713 -2.513 -20.569 -3.291 C -27.426 -4.045 -34.282 -4.564 -41.139 -4.882 C -47.995 -5.21 -54.852 -5.171 -61.708 -4.828 C -68.565 -4.46 -75.421 -4.028 -82.278 -3.797 L -102.847 -3.064 L -123.416 -2.169 L -143.986 -1.129 L -154.27 -.607 L -164.555 0 C -164.855 .018 -165.083 .275 -165.065 .575 C -165.049 .853 -164.826 1.069 -164.555 1.085 L -154.27 1.692 L -143.986 2.214 L -123.416 3.255 L -102.847 4.15 L -82.278 4.882 C -75.421 5.114 -68.565 5.546 -61.708 5.913 C -54.852 6.256 -47.995 6.295 -41.139 5.967 C -34.282 5.65 -27.426 5.13 -20.569 4.376 C -13.713 3.599 -6.856 2.64 0 1.085 C .3 1.017 .487 .719 .419 .419 C .371 .204 .202 .046 0 0 " fill="#000000"/>
<path transform="matrix(1,0,0,-1,402.4477,1080.0121)" d="M 0 0 C -28.469 27.631 -76.027 8.02 -76.027 8.02 C -76.027 8.02 -65.391 20.138 -88.127 31.944 C -78.425 64.051 -120.873 63.974 -98.168 107.566 C -98.168 107.566 -108.395 120.039 -127.938 110.057 C -149.059 110.275 -175.603 117.314 -200.817 93.413 C -206.934 99.756 -216.016 100.059 -224.579 87.569 L -211.35 21.979 C -204.919 -11.007 -188.79 -41.322 -165.027 -65.086 L -146.066 -84.046 L -7.132 -84.046 C -7.132 -84.046 38.277 -44.116 5.222 0 " fill="#f6f9fc"/>
<path transform="matrix(1,0,0,-1,402.4477,1080.0121)" stroke-width="10.849" stroke-linecap="round" stroke-linejoin="round" fill="none" stroke="#000000" d="M 0 0 C -28.469 27.631 -76.027 8.02 -76.027 8.02 C -76.027 8.02 -65.391 20.138 -88.127 31.944 C -78.425 64.051 -120.873 63.974 -98.168 107.566 C -98.168 107.566 -108.395 120.039 -127.938 110.057 C -149.059 110.275 -175.603 117.314 -200.817 93.413 C -206.934 99.756 -216.016 100.059 -224.579 87.569 L -211.35 21.979 C -204.919 -11.007 -188.79 -41.322 -165.027 -65.086 L -146.066 -84.046 L -7.132 -84.046 C -7.132 -84.046 38.277 -44.116 5.222 0 "/>
<path transform="matrix(1,0,0,-1,201.6308,986.5995)" stroke-width="10.849" stroke-linecap="round" stroke-linejoin="round" fill="none" stroke="#000000" d="M 0 0 C 0 0 2.177 -36.039 9.532 -66.476 C 16.887 -96.913 29.557 -122.805 50.811 -144.059 L 65.701 -158.949 L 160.384 -158.949 C 160.384 -158.949 151.908 -94.769 206.03 -93.417 "/>
<path transform="matrix(1,0,0,-1,304.2793,1105.057)" d="M 0 0 C 2.271 17.71 14.749 26.792 22.141 33.064 " fill="#f6f9fc"/>
<path transform="matrix(1,0,0,-1,304.2793,1105.057)" d="M 0 0 C .024 3.436 .428 6.934 1.325 10.38 C 2.215 13.826 3.601 17.204 5.376 20.386 C 7.15 23.568 9.299 26.557 11.611 29.341 C 13.91 32.127 16.405 34.732 18.632 37.2 C 20.656 39.445 24.117 39.623 26.361 37.599 C 28.606 35.574 28.784 32.113 26.759 29.869 C 26.435 29.509 26.072 29.201 25.684 28.948 L 25.65 28.928 C 22.661 27.001 19.854 25.306 17.185 23.413 C 14.52 21.535 12.014 19.496 9.749 17.175 C 7.487 14.857 5.482 12.253 3.84 9.364 C 2.194 6.479 .92 3.322 0 0 " fill="#000000"/>
<path transform="matrix(1,0,0,-1,314.3208,1048.0678)" d="M 0 0 C -16.126 5.903 -34.345 -4.313 -34.345 -4.313 " fill="#f6f9fc"/>
<path transform="matrix(1,0,0,-1,312.456,1053.1615)" d="M 0 0 C -2.122 1.157 -4.478 2.197 -7.076 2.783 C -9.666 3.355 -12.427 3.713 -15.259 3.699 C -18.088 3.693 -20.981 3.443 -23.871 2.955 C -26.758 2.456 -29.654 1.769 -32.48 .779 C -30.071 2.571 -27.458 4.129 -24.732 5.526 C -22 6.915 -19.126 8.104 -16.106 9.057 C -13.086 10.015 -9.893 10.615 -6.569 10.904 C -3.235 11.178 .227 10.889 3.729 10.188 C 6.702 9.593 8.629 6.701 8.035 3.729 C 7.44 .756 4.548 -1.172 1.575 -.577 C 1.026 -.467 .513 -.279 .045 -.026 Z " fill="#000000"/>
<path transform="matrix(1,0,0,-1,272.3635,972.4457)" d="M 0 0 C -9.644 -22.947 -1.023 -43.516 12.607 -57.912 " fill="#f6f9fc"/>
<path transform="matrix(1,0,0,-1,277.3642,974.5473)" d="M 0 0 C -2.226 -4.224 -3.909 -8.741 -4.807 -13.479 C -5.711 -18.213 -5.819 -23.159 -5.095 -28.088 C -4.378 -33.017 -2.844 -37.912 -.663 -42.576 C 1.518 -47.244 4.333 -51.685 7.606 -55.811 C 3.677 -52.306 .073 -48.353 -3.009 -43.938 C -6.087 -39.525 -8.636 -34.636 -10.369 -29.357 C -12.107 -24.087 -12.998 -18.43 -12.908 -12.718 C -12.83 -7.004 -11.778 -1.275 -10.002 4.203 L -9.997 4.219 C -9.069 7.079 -5.998 8.646 -3.137 7.719 C -.277 6.791 1.291 3.72 .363 .859 C .268 .568 .137 .263 0 0 " fill="#000000"/>
<path transform="matrix(1,0,0,-1,606.9644,947.5043)" d="M 0 0 C -11.12 -.001 -20.59 8.5 -21.589 19.787 C -22.045 24.943 -22.215 30.311 -22.095 35.739 C -21.098 80.618 .061 115.95 20.523 150.12 C 28.049 162.687 35.157 174.556 41.242 186.807 C 46.178 196.744 50.684 207.015 53.753 217.698 C 55.479 223.706 58.551 233.425 56.301 239.6 C 54.654 244.117 47.427 243.727 43.521 243.688 C 6.107 243.321 -24.817 218.687 -54.326 198.701 C -62.532 193.143 -69.172 185.357 -77.47 180.183 C -84.619 175.726 -93.946 174.938 -101.474 179.429 C -108.647 183.709 -117.002 194.814 -112.454 203.273 C -105.938 215.392 -91.024 225.383 -80.201 233.361 C -67.932 242.406 -54.975 250.461 -42.051 258.525 C -21.466 271.369 10.013 286.749 43.083 287.083 C 71.877 287.325 85.812 274.834 92.438 264.263 C 105.853 242.863 101.82 211.211 80.107 167.5 C 73.264 153.724 65.379 140.557 57.754 127.824 C 39.384 97.148 22.033 68.173 21.291 34.774 C 21.206 30.938 21.323 27.183 21.639 23.613 C 22.695 11.676 13.875 1.143 1.938 .086 C 1.288 .028 .64 0 0 0 " fill="#000000"/>
<path transform="matrix(1,0,0,-1,696.5078,896.123)" d="M 0 0 C 49.565 77.739 114 72 136.505 41.611 C 144.443 30.893 150.833 18.913 154.637 6.315 C 155.532 3.352 147.652 -6.098 153.13 -14.609 C 153.19 -14.702 -82.185 -119.423 -82.185 -119.423 C -122.03 -79.658 -112.099 -20.588 -112.099 -20.588 C -127.169 -5.716 -112.099 13.826 -112.099 13.826 C -68.137 7.002 -52.132 36.815 -51.773 33.838 C -45.909 34.123 -35.239 32.661 -32.084 24.081 C -31.262 21.845 -28.476 21.085 -26.542 22.478 C -17.577 28.937 2.596 40.449 17.956 26.86 " fill="#f6f9fc"/>
<path transform="matrix(1,0,0,-1,696.5078,896.123)" d="M 0 0 C .715 2.547 1.595 5.023 2.566 7.458 C 3.571 9.87 4.729 12.205 5.93 14.522 C 7.117 16.851 8.546 19.025 9.923 21.247 C 11.31 23.46 12.927 25.515 14.495 27.608 C 15.257 28.675 16.136 29.645 16.994 30.635 C 17.85 31.627 18.712 32.616 19.602 33.578 C 21.376 35.51 23.309 37.302 25.181 39.147 C 27.146 40.903 29.101 42.674 31.125 44.371 L 34.227 46.847 L 35.782 48.082 L 37.4 49.242 L 40.642 51.56 C 41.739 52.31 42.88 53.002 43.999 53.726 C 46.212 55.209 48.589 56.453 50.914 57.776 C 52.084 58.425 53.314 58.975 54.513 59.578 C 55.717 60.172 56.919 60.77 58.175 61.266 L 61.904 62.828 L 65.731 64.176 C 70.875 65.851 76.166 67.237 81.609 67.894 C 87.043 68.569 92.572 68.721 98.085 68.235 C 109.099 67.298 120.081 63.636 129.391 57.095 C 134.031 53.835 138.262 49.822 141.659 45.179 C 144.808 40.912 147.726 36.464 150.364 31.836 C 152.997 27.206 155.357 22.4 157.369 17.428 C 158.388 14.948 159.287 12.412 160.119 9.852 L 160.424 8.888 L 160.576 8.407 L 160.652 8.166 L 160.768 7.724 C 160.811 7.538 160.85 7.35 160.883 7.161 C 160.958 6.747 160.974 6.471 160.986 6.19 C 160.998 5.919 161.006 5.573 160.991 5.366 C 160.966 4.944 160.919 4.447 160.861 4.152 L 160.769 3.646 L 160.672 3.228 C 160.604 2.94 160.536 2.692 160.47 2.474 C 159.921 .683 159.433 -.418 159.011 -1.557 C 158.164 -3.739 157.612 -5.601 157.484 -7.153 C 157.377 -8.706 157.586 -9.796 158.203 -10.898 L 158.325 -11.106 L 158.384 -11.212 C 158.366 -11.167 158.633 -11.726 158.747 -12.079 C 158.893 -12.502 159.036 -13.026 159.104 -13.664 C 159.278 -14.916 158.949 -16.736 158.083 -18.016 C 157.238 -19.318 156.211 -20.003 155.48 -20.397 C 154.984 -20.651 154.988 -20.633 154.976 -20.643 L 154.866 -20.692 L 154.647 -20.79 L 152.897 -21.572 L 149.419 -23.118 L 142.47 -26.202 L 31.204 -75.205 L -79.979 -124.379 L -80.087 -124.427 C -82.166 -125.346 -84.524 -124.806 -86.017 -123.263 C -89.275 -119.878 -92.474 -116.415 -95.26 -112.625 C -96.733 -110.79 -97.993 -108.803 -99.345 -106.881 L -101.208 -103.894 L -102.132 -102.396 L -102.988 -100.86 C -107.616 -92.697 -111.114 -83.955 -113.61 -74.996 C -116.123 -66.033 -117.593 -56.841 -118.257 -47.624 C -118.58 -43.012 -118.684 -38.39 -118.574 -33.764 C -118.522 -31.451 -118.409 -29.137 -118.232 -26.816 C -118.148 -25.655 -118.042 -24.494 -117.916 -23.323 C -117.79 -22.128 -117.66 -21.041 -117.449 -19.689 L -115.91 -24.449 C -118.563 -21.789 -120.936 -18.552 -122.38 -14.822 C -123.867 -11.119 -124.411 -7.062 -124.157 -3.246 C -123.914 .587 -122.983 4.214 -121.652 7.563 C -120.987 9.242 -120.228 10.862 -119.374 12.429 C -118.945 13.212 -118.499 13.985 -118.022 14.749 L -117.278 15.895 C -117 16.303 -116.795 16.609 -116.395 17.139 C -115.17 18.759 -113.2 19.484 -111.323 19.196 L -111.267 19.187 C -106.095 18.382 -100.894 18.062 -95.769 18.331 C -90.646 18.605 -85.604 19.488 -80.809 21.063 C -76.011 22.627 -71.469 24.882 -67.33 27.756 C -65.258 29.192 -63.29 30.778 -61.416 32.505 C -60.477 33.369 -59.566 34.266 -58.641 35.214 L -57.173 36.727 C -56.9 37.003 -56.62 37.291 -56.161 37.704 L -55.979 37.864 L -55.723 38.073 C -55.605 38.174 -55.229 38.446 -54.929 38.626 C -54.606 38.816 -54.261 38.981 -53.911 39.115 L -53.657 39.202 L -53.324 39.294 C -53.1 39.35 -52.869 39.394 -52.638 39.423 C -52.407 39.453 -52.174 39.468 -51.947 39.471 C -51.857 39.472 -51.718 39.473 -51.457 39.45 C -51.233 39.43 -51.004 39.395 -50.774 39.346 C -49.871 39.17 -48.896 38.645 -48.371 38.18 C -47.813 37.713 -47.313 37.087 -46.981 36.438 C -46.778 36.034 -46.776 35.986 -46.713 35.826 C -46.661 35.683 -46.613 35.536 -46.571 35.388 C -46.488 35.091 -46.426 34.788 -46.388 34.489 L -52.036 39.256 C -48.12 39.421 -44.336 39.01 -40.451 37.844 C -38.521 37.269 -36.575 36.409 -34.712 35.256 C -32.855 34.11 -31.056 32.602 -29.639 30.71 C -29.258 30.262 -28.937 29.77 -28.635 29.261 C -28.343 28.751 -27.989 28.265 -27.771 27.725 L -27.064 26.122 C -27.043 26.075 -26.99 25.94 -26.996 25.966 L -27.022 26.044 C -27.04 26.097 -27.073 26.138 -27.097 26.191 C -27.144 26.299 -27.22 26.389 -27.288 26.489 C -27.937 27.263 -28.749 27.372 -29.474 27.051 C -29.558 26.999 -29.646 26.97 -29.716 26.906 L -29.216 27.261 L -28.137 28.019 C -27.413 28.518 -26.681 29.005 -25.939 29.481 C -24.457 30.432 -22.937 31.336 -21.377 32.188 C -18.263 33.896 -14.969 35.378 -11.485 36.546 C -7.994 37.693 -4.288 38.516 -.4 38.71 C 3.472 38.904 7.54 38.454 11.382 37.138 C 15.244 35.866 18.757 33.692 21.736 31.134 C 24.127 29.081 24.401 25.478 22.348 23.087 C 20.294 20.697 16.692 20.423 14.301 22.476 C 14.27 22.503 14.238 22.531 14.207 22.559 L 14.176 22.587 C 10.282 26.115 5.49 27.884 .121 27.611 C -5.233 27.393 -10.883 25.375 -16.159 22.548 C -17.482 21.839 -18.789 21.076 -20.071 20.267 C -20.713 19.862 -21.349 19.446 -21.978 19.019 L -22.916 18.371 L -23.421 18.018 C -23.839 17.739 -24.261 17.467 -24.724 17.255 C -28.392 15.448 -33.126 16.359 -35.801 19.764 C -36.137 20.176 -36.414 20.625 -36.669 21.085 C -36.796 21.315 -36.896 21.552 -37.002 21.79 L -37.151 22.149 C -37.199 22.269 -37.188 22.228 -37.208 22.275 C -37.313 22.487 -37.409 22.701 -37.498 22.92 C -37.564 23.153 -37.738 23.314 -37.842 23.521 C -37.952 23.723 -38.069 23.921 -38.233 24.09 C -38.772 24.837 -39.528 25.481 -40.454 26.051 C -41.376 26.618 -42.445 27.127 -43.66 27.48 C -46.051 28.212 -48.877 28.545 -51.509 28.42 L -57.158 33.188 C -57.13 32.93 -57.079 32.669 -57.005 32.415 C -56.969 32.288 -56.927 32.163 -56.879 32.04 C -56.822 31.901 -56.822 31.876 -56.635 31.487 C -56.328 30.874 -55.854 30.282 -55.323 29.851 C -55.09 29.66 -54.709 29.381 -54.314 29.186 C -53.916 28.982 -53.476 28.827 -53.036 28.735 C -52.817 28.689 -52.598 28.658 -52.384 28.641 C -52.133 28.623 -52.004 28.624 -51.926 28.622 C -51.719 28.62 -51.509 28.631 -51.299 28.657 C -51.089 28.682 -50.88 28.722 -50.676 28.773 L -50.376 28.86 L -50.153 28.937 C -49.88 29.033 -49.614 29.16 -49.368 29.311 C -49.211 29.393 -48.983 29.573 -48.997 29.56 L -48.943 29.606 C -48.943 29.606 -48.952 29.596 -48.957 29.592 C -49.015 29.541 -49.226 29.337 -49.439 29.118 L -50.875 27.638 C -51.89 26.597 -52.96 25.542 -54.066 24.524 C -56.28 22.483 -58.649 20.572 -61.146 18.841 C -66.139 15.373 -71.661 12.633 -77.434 10.752 C -83.206 8.856 -89.21 7.816 -95.187 7.498 C -101.167 7.183 -107.12 7.562 -112.931 8.466 L -107.804 10.513 C -107.878 10.416 -108.12 10.074 -108.282 9.832 L -108.821 9 C -109.177 8.43 -109.517 7.841 -109.844 7.245 C -110.495 6.051 -111.07 4.818 -111.563 3.574 C -112.557 1.084 -113.175 -1.465 -113.328 -3.912 C -113.415 -5.138 -113.362 -6.334 -113.185 -7.488 C -113.01 -8.642 -112.737 -9.766 -112.292 -10.83 C -111.468 -12.98 -110.053 -14.937 -108.289 -16.728 L -108.284 -16.732 C -107.008 -18.027 -106.501 -19.819 -106.75 -21.488 C -106.881 -22.336 -107.024 -23.459 -107.129 -24.478 C -107.24 -25.521 -107.337 -26.578 -107.414 -27.637 C -107.576 -29.756 -107.681 -31.891 -107.728 -34.029 C -107.829 -38.306 -107.734 -42.597 -107.434 -46.869 C -106.819 -55.41 -105.457 -63.895 -103.158 -72.085 C -100.876 -80.277 -97.701 -88.191 -93.541 -95.525 L -92.774 -96.908 L -91.942 -98.25 L -90.273 -100.931 C -89.057 -102.647 -87.938 -104.434 -86.615 -106.07 C -84.128 -109.465 -81.26 -112.55 -78.353 -115.583 L -84.39 -114.467 L 26.564 -64.783 L 137.4 -14.846 L 144.325 -11.73 L 147.782 -10.172 L 149.497 -9.396 L 149.711 -9.298 L 149.818 -9.25 C 149.877 -9.227 149.953 -9.177 149.529 -9.397 C 148.942 -9.725 148.059 -10.344 147.358 -11.58 C 146.636 -12.792 146.45 -14.547 146.768 -15.732 C 146.908 -16.337 147.123 -16.828 147.341 -17.218 C 147.496 -17.529 147.933 -18.084 147.852 -17.964 L 147.668 -17.662 L 147.307 -17.053 C 146.369 -15.408 145.657 -13.552 145.287 -11.669 C 144.907 -9.788 144.837 -7.906 144.972 -6.15 C 145.258 -2.638 146.286 .374 147.24 2.914 C 147.707 4.146 148.206 5.382 148.389 6.017 C 148.417 6.102 148.432 6.16 148.435 6.181 L 148.447 6.224 C 148.442 6.211 148.439 6.199 148.438 6.185 C 148.447 6.201 148.409 6.021 148.416 5.915 C 148.417 5.865 148.404 5.677 148.415 5.565 C 148.424 5.442 148.437 5.325 148.472 5.065 C 148.49 4.954 148.513 4.843 148.541 4.735 C 148.555 4.669 148.638 4.419 148.604 4.524 L 148.537 4.736 L 148.403 5.16 L 148.136 6.008 C 147.405 8.266 146.616 10.51 145.711 12.716 C 143.929 17.138 141.821 21.45 139.453 25.628 C 137.079 29.806 134.437 33.846 131.576 37.734 C 128.981 41.271 125.791 44.345 122.179 46.951 C 114.939 52.145 106.083 55.277 96.938 56.131 C 92.362 56.577 87.714 56.498 83.091 55.972 C 78.461 55.464 73.877 54.375 69.375 52.995 L 66.013 51.884 L 62.711 50.567 C 61.599 50.157 60.525 49.642 59.449 49.134 C 58.376 48.616 57.278 48.157 56.224 47.595 C 54.13 46.444 51.985 45.387 49.967 44.079 C 48.948 43.444 47.909 42.844 46.904 42.184 L 43.927 40.133 L 42.437 39.11 L 40.999 38.005 L 38.12 35.795 C 36.237 34.272 34.407 32.671 32.564 31.089 L 29.902 28.585 C 29.026 27.738 28.077 26.969 27.238 26.078 C 25.538 24.32 23.696 22.7 21.979 20.938 C 21.104 20.073 20.255 19.182 19.354 18.333 C 18.452 17.486 17.57 16.618 16.707 15.726 C 15.823 14.852 14.963 13.956 14.053 13.094 C 13.146 12.23 12.239 11.363 11.357 10.468 C 9.608 8.668 7.708 6.961 5.853 5.193 C 4.018 3.411 2.091 1.669 0 0 " fill="#000000"/>
<path transform="matrix(1,0,0,-1,584.4087,916.7113)" d="M 0 0 C 27.578 -3.151 58.36 15.632 67.23 22.415 " fill="#f6f9fc"/>
<path transform="matrix(1,0,0,-1,585.0244,911.32168)" d="M 0 0 C 5.332 -1.019 11.001 -1.162 16.712 -.659 C 22.426 -.145 28.203 .963 33.876 2.598 C 39.555 4.222 45.165 6.271 50.649 8.669 C 56.128 11.079 61.516 13.781 66.614 17.025 C 62.051 13.052 57.073 9.533 51.922 6.274 C 46.759 3.024 41.373 .075 35.75 -2.493 C 30.13 -5.069 24.23 -7.173 18.067 -8.682 C 11.905 -10.173 5.441 -11.034 -1.231 -10.779 C -4.234 -10.665 -6.575 -8.138 -6.46 -5.135 C -6.345 -2.133 -3.818 .208 -.816 .093 C -.549 .083 -.255 .047 0 0 " fill="#000000"/>
<path transform="matrix(1,0,0,-1,614.3232,1015.54629)" d="M 0 0 C 0 0 -13.046 -5.384 -14.213 18.02 C -14.213 18.02 42.924 28.228 95.62 57.445 C 148.315 86.663 178.967 116.179 178.967 116.179 C 178.967 116.179 153.924 148.641 173.031 188.545 C 204.321 195.82 236.894 180.336 260.097 128.894 C 260.097 128.894 130.853 26.605 0 0 " fill="#f6f9fc"/>
<path transform="matrix(1,0,0,-1,614.3232,1015.54629)" stroke-width="10.849" stroke-linecap="round" stroke-linejoin="round" fill="none" stroke="#000000" d="M 0 0 C 0 0 -13.046 -5.384 -14.213 18.02 C -14.213 18.02 42.924 28.228 95.62 57.445 C 148.315 86.663 178.967 116.179 178.967 116.179 C 178.967 116.179 153.924 148.641 173.031 188.545 C 204.321 195.82 236.894 180.336 260.097 128.894 C 260.097 128.894 130.853 26.605 0 0 Z "/>
<path transform="matrix(1,0,0,-1,614.3232,1015.54629)" d="M 0 0 C 94.185 -5.533 293.489 90.964 260.097 128.894 C 240.634 151.002 194.495 88.094 131.228 51.597 C 73.475 18.281 0 0 0 0 " fill="#000000"/>
<path transform="matrix(1,0,0,-1,614.3232,1015.54629)" stroke-width="10.849" stroke-linecap="round" stroke-linejoin="round" fill="none" stroke="#000000" d="M 0 0 C 94.185 -5.533 293.489 90.964 260.097 128.894 C 240.634 151.002 194.495 88.094 131.228 51.597 C 73.475 18.281 0 0 0 0 Z "/>
<path transform="matrix(1,0,0,-1,477.0527,753.1718)" d="M 0 0 C 2.731 -5.075 5.445 -9.226 8.591 -12.852 C 11.719 -16.452 15.119 -19.5 18.859 -21.918 C 22.599 -24.337 26.766 -26.195 31.328 -27.581 C 35.919 -28.972 40.812 -29.762 46.564 -30.199 C 42.248 -34.122 36.269 -35.946 30.297 -36.049 C 24.294 -36.151 18.156 -34.399 12.957 -31.019 C 7.758 -27.641 3.658 -22.752 1.305 -17.231 C -1.032 -11.735 -1.808 -5.54 0 0 " fill="#000000"/>
<path transform="matrix(1,0,0,-1,565.1157,561.1445)" stroke-width="10.849" stroke-linecap="round" stroke-linejoin="round" fill="none" stroke="#000000" d="M 0 0 C -26.074 -18.05 -58.427 -18.72 -88.81 -15.136 C -114.186 -12.142 -144.491 -6.07 -161.5 -30.826 C -169.218 -42.059 -170.548 -56.176 -167.614 -69.245 C -161.87 -94.838 -134.567 -104.596 -111.764 -109.257 C -75.3 -116.71 -36.784 -114.148 -1.372 -102.872 C 31.949 -92.261 69.237 -72.252 89.212 -42.485 C 98.789 -28.214 101.778 -12.542 92.572 2.917 C 83.61 17.967 65.958 28.215 48.236 25.03 C 29.964 21.748 14.898 10.314 0 0 Z "/>
<path transform="matrix(1,0,0,-1,618.5459,574.4457)" d="M 0 0 C -30.248 -28.895 -62.838 -39.955 -88.431 -44.467 L -87.061 -44.226 C -112.653 -48.738 -147.061 -49.492 -185.367 -32.685 " fill="#f6f9fc"/>
<path transform="matrix(1,0,0,-1,618.5459,574.4457)" stroke-width="10.849" stroke-linecap="round" stroke-linejoin="round" fill="none" stroke="#000000" d="M 0 0 C -30.248 -28.895 -62.838 -39.955 -88.431 -44.467 L -87.061 -44.226 C -112.653 -48.738 -147.061 -49.492 -185.367 -32.685 "/>
<path transform="matrix(1,0,0,-1,510.6899,479.97554)" stroke-width="10.849" stroke-linecap="round" stroke-linejoin="round" fill="none" stroke="#000000" d="M 0 0 C 5.239 -29.71 -22.205 -59.382 -61.296 -66.275 C -100.388 -73.168 -136.325 -54.671 -141.563 -24.961 C -146.802 4.748 -119.359 34.42 -80.267 41.313 C -41.175 48.207 -5.239 29.709 0 0 Z "/>
<path transform="matrix(1,0,0,-1,508.3369,480.39064)" d="M 0 0 C 2.504 -14.205 -6.98 -27.75 -21.185 -30.255 C -35.39 -32.76 -48.936 -23.275 -51.44 -9.07 C -53.945 5.135 -44.46 18.68 -30.255 21.185 C -16.051 23.689 -2.505 14.205 0 0 " fill="#000000"/>
<path transform="matrix(1,0,0,-1,652.2539,455.0141)" stroke-width="10.849" stroke-linecap="round" stroke-linejoin="round" fill="none" stroke="#000000" d="M 0 0 C 5.238 -29.709 -22.205 -59.382 -61.297 -66.275 C -100.388 -73.168 -136.325 -54.671 -141.564 -24.961 C -146.803 4.748 -119.359 34.42 -80.268 41.313 C -41.176 48.207 -5.239 29.71 0 0 Z "/>
<path transform="matrix(1,0,0,-1,649.9004,455.42909)" d="M 0 0 C 2.505 -14.205 -6.98 -27.75 -21.185 -30.255 C -35.39 -32.76 -48.936 -23.275 -51.44 -9.07 C -53.945 5.135 -44.46 18.68 -30.255 21.185 C -16.05 23.69 -2.505 14.205 0 0 " fill="#000000"/>
<path transform="matrix(1,0,0,-1,355.3437,431.44819)" d="M 0 0 C 16.27 21.731 74.178 39.711 112.789 31.778 C 112.789 31.778 119.967 72.218 84.345 67.904 C 48.723 63.59 -9.463 53.668 0 0 " fill="#000000"/>
<path transform="matrix(1,0,0,-1,355.3437,431.44819)" stroke-width="10.849" stroke-linecap="round" stroke-linejoin="round" fill="none" stroke="#000000" d="M 0 0 C 16.27 21.731 74.178 39.711 112.789 31.778 C 112.789 31.778 119.967 72.218 84.345 67.904 C 48.723 63.59 -9.463 53.668 0 0 Z "/>
<path transform="matrix(1,0,0,-1,639.271,381.38423)" d="M 0 0 C -22.722 14.856 -83.286 11.946 -116.855 -8.714 C -116.855 -8.714 -137.432 26.832 -102.483 34.961 C -67.534 43.091 -9.463 53.668 0 0 " fill="#000000"/>
<path transform="matrix(1,0,0,-1,639.271,381.38423)" stroke-width="10.849" stroke-linecap="round" stroke-linejoin="round" fill="none" stroke="#000000" d="M 0 0 C -22.722 14.856 -83.286 11.946 -116.855 -8.714 C -116.855 -8.714 -137.432 26.832 -102.483 34.961 C -67.534 43.091 -9.463 53.668 0 0 Z "/>
<path transform="matrix(1,0,0,-1,722.5679,304.3598)" d="M 0 0 C -176.764 -7.473 -349.476 -37.927 -518.135 -91.361 C -523.106 -92.936 -527.836 -88.35 -526.436 -83.327 L -507.933 -16.94 C -504.863 -5.928 -496.393 2.781 -485.451 6.093 C -347.953 47.708 -207.483 72.476 -64.044 80.398 C -52.629 81.029 -41.691 75.742 -35.041 66.443 L 5.052 10.389 C 8.086 6.148 5.21 .22 0 0 " fill="#000000"/>
<path transform="matrix(1,0,0,-1,616.8794,195.53998)" d="M 0 0 L -66.143 -4.621 C -71.191 -4.974 -75.27 -8.875 -75.848 -13.902 L -78.527 -37.24 C -79.289 -43.875 -73.746 -49.528 -67.096 -48.896 L 11.943 -41.384 C 19.289 -40.686 23.645 -32.831 20.346 -26.23 L 10.13 -5.784 C 8.232 -1.986 4.235 .296 0 0 " fill="#000000"/>
<path transform="matrix(1,0,0,-1,599.1377,210.9433)" d="M 0 0 L -66.143 -4.621 C -71.191 -4.974 -75.271 -8.875 -75.848 -13.902 L -78.527 -37.24 C -79.289 -43.875 -73.746 -49.528 -67.097 -48.896 L 11.942 -41.384 C 19.288 -40.686 23.644 -32.831 20.346 -26.23 L 10.129 -5.784 C 8.232 -1.986 4.235 .296 0 0 " fill="#000000"/>
<path transform="matrix(1,0,0,-1,527.187,217.82563)" d="M 0 0 L 17.742 15.403 L 68.585 -9.288 L 4.107 -23.292 Z " fill="#000000"/>
<path transform="matrix(1,0,0,-1,149.2148,919.515)" d="M 0 0 C -.178 0 -.355 .002 -.534 .006 C -12.514 .296 -21.991 10.243 -21.702 22.223 C -19.104 129.684 -1.953 190.487 35.648 225.533 C 67.593 255.309 124.803 269.011 166.773 258.648 C 169.512 257.972 172.305 257.274 174.689 255.766 C 181.08 251.724 182.776 243.147 182.562 235.589 C 182.477 232.593 182.165 229.524 180.833 226.84 C 179.064 223.275 175.647 220.752 171.973 219.224 C 163.368 215.644 151.36 217.36 142.09 217.252 C 131.34 217.126 120.562 216.488 109.972 214.546 C 93.526 211.529 77.611 205.321 65.237 193.788 C 37.373 167.817 23.94 114.581 21.682 21.174 C 21.396 9.373 11.739 .001 0 0 " fill="#000000"/>
<path transform="matrix(1,0,0,-1,202.8213,916.5038)" d="M 0 0 C -2.607 -7.057 -5.556 -13.979 -9.08 -20.677 C -13.359 -28.795 -18.906 -36.473 -26.431 -41.723 C -33.956 -46.982 -43.683 -49.571 -52.529 -47.126 C -59.424 -45.211 -65.268 -40.482 -72.154 -38.504 C -81.396 -35.853 -91.807 -38.361 -100.536 -34.324 C -110.704 -29.613 -115.657 -17.351 -125.744 -12.451 C -135.148 -7.875 -147.356 -10.59 -155.753 -4.36 C -159.879 -1.294 -162.379 3.488 -164.006 8.361 C -169.112 23.617 -166.784 40.797 -163.206 56.125 C -159.34 72.685 -153.029 88.777 -144.156 103.305 C -129.259 127.677 -102.289 137.854 -75.202 141.783 C -52.106 145.136 -29.317 138.933 -8.541 129.071 C -6.742 128.216 -4.908 127.335 -3.074 126.4 L -3.057 126.4 C 9.323 120.207 22.269 112.331 29.497 100.59 C 41.354 81.279 63.047 22.988 0 0 " fill="#f6f9fc"/>
<path transform="matrix(1,0,0,-1,216.8459,772.5995)" d="M 0 0 C 2.319 -6.123 -6.284 -20.219 -17.081 -17.504 L -17.099 -17.504 C -18.933 -16.569 -20.767 -15.688 -22.565 -14.833 C -43.341 -4.972 -66.131 1.231 -89.227 -2.122 C -94.89 4.477 -94.198 18.69 -86.997 23.563 C -79.787 28.436 -70.428 28.588 -61.771 27.708 C -45.112 25.999 -28.795 21.019 -14.025 13.134 C -8.235 10.06 -2.337 6.113 0 0 " fill="#f6f9fc"/>
<path transform="matrix(1,0,0,-1,216.603,858.5536)" d="M 0 0 C .917 -5.47 1.337 -11.066 1.354 -16.688 C 1.415 -22.319 1.018 -27.969 .31 -33.589 C .144 -34.999 -.062 -36.399 -.272 -37.803 C -.451 -39.216 -.735 -40.601 -1.179 -41.939 C -2.164 -44.583 -2.998 -47.267 -3.931 -49.916 C -5.821 -55.243 -7.815 -60.336 -9.977 -65.513 C -12.158 -70.671 -14.549 -75.812 -17.348 -80.825 C -20.135 -85.837 -23.382 -90.723 -27.316 -95.208 C -31.262 -99.678 -35.835 -103.787 -41.445 -106.767 C -46.964 -109.72 -53.247 -111.48 -59.79 -111.421 C -63.04 -111.373 -66.397 -110.812 -69.499 -109.764 C -72.563 -108.72 -75.261 -107.355 -77.734 -106.07 C -80.207 -104.78 -82.484 -103.554 -84.661 -102.658 C -86.844 -101.733 -88.824 -101.244 -91.216 -100.91 C -95.934 -100.231 -101.441 -100.557 -107.59 -99.719 C -110.649 -99.289 -113.938 -98.509 -117.038 -96.97 C -120.142 -95.468 -122.777 -93.429 -125.027 -91.333 C -129.517 -87.109 -132.773 -82.654 -136.289 -79.36 C -138.031 -77.709 -139.79 -76.362 -141.618 -75.437 C -143.428 -74.501 -145.544 -73.88 -147.937 -73.428 C -150.323 -72.973 -152.947 -72.696 -155.739 -72.338 C -158.53 -71.974 -161.521 -71.542 -164.647 -70.608 C -167.763 -69.696 -171.017 -68.133 -173.811 -65.841 C -176.564 -63.526 -178.609 -60.704 -180.143 -57.855 C -181.673 -54.993 -182.771 -52.069 -183.575 -49.192 C -183.806 -48.472 -184.001 -47.746 -184.166 -47.014 L -184.689 -44.824 C -184.949 -43.356 -185.279 -41.889 -185.446 -40.417 C -186.289 -34.527 -186.313 -28.652 -185.897 -22.902 C -185.473 -17.15 -184.579 -11.517 -183.454 -5.997 C -182.314 -.486 -180.97 4.937 -179.403 10.341 C -176.252 21.124 -172.206 31.759 -166.625 41.792 C -163.83 46.8 -160.638 51.649 -156.929 56.168 C -153.23 60.695 -148.949 64.852 -144.307 68.414 C -135.001 75.584 -124.339 80.534 -113.461 83.932 C -108.011 85.635 -102.482 86.962 -96.93 88.003 C -94.135 88.518 -91.411 88.985 -88.545 89.348 C -85.667 89.735 -82.774 89.96 -79.881 90.089 C -68.29 90.56 -56.77 88.865 -45.814 85.804 C -34.836 82.759 -24.383 78.315 -14.393 73.283 C -11.717 71.936 -10.64 68.674 -11.988 65.999 C -13.336 63.323 -16.597 62.246 -19.273 63.594 L -19.32 63.618 C -28.846 68.413 -38.615 72.549 -48.721 75.352 C -58.801 78.169 -69.185 79.668 -79.462 79.248 C -82.028 79.132 -84.588 78.935 -87.129 78.592 C -89.685 78.271 -92.351 77.816 -94.931 77.34 C -100.121 76.367 -105.24 75.135 -110.224 73.577 C -120.181 70.469 -129.644 66.02 -137.684 59.82 C -141.712 56.724 -145.326 53.218 -148.546 49.281 C -151.773 45.349 -154.624 41.037 -157.153 36.502 C -162.21 27.419 -166.013 17.498 -168.986 7.311 C -171.897 -2.901 -174.288 -13.419 -175.078 -23.7 C -175.45 -28.848 -175.414 -33.966 -174.703 -38.904 C -174.568 -40.151 -174.284 -41.353 -174.075 -42.576 L -173.644 -44.373 C -173.51 -44.975 -173.352 -45.568 -173.161 -46.149 C -172.503 -48.537 -171.639 -50.75 -170.592 -52.709 C -169.54 -54.665 -168.28 -56.318 -166.84 -57.528 C -165.384 -58.684 -163.656 -59.59 -161.53 -60.216 C -159.417 -60.855 -156.979 -61.242 -154.355 -61.577 C -151.728 -61.918 -148.908 -62.205 -145.922 -62.768 C -142.954 -63.329 -139.749 -64.2 -136.691 -65.771 C -133.638 -67.322 -131.047 -69.382 -128.828 -71.485 C -124.399 -75.718 -121.149 -80.153 -117.632 -83.394 C -115.89 -85.019 -114.126 -86.33 -112.301 -87.209 C -110.5 -88.116 -108.404 -88.648 -106.063 -88.979 C -101.373 -89.672 -95.871 -89.352 -89.745 -90.161 C -86.722 -90.553 -83.356 -91.406 -80.51 -92.634 C -77.632 -93.827 -75.098 -95.215 -72.724 -96.447 C -70.354 -97.686 -68.143 -98.768 -66.026 -99.486 C -63.946 -100.179 -61.853 -100.528 -59.638 -100.573 C -55.237 -100.616 -50.644 -99.398 -46.545 -97.191 C -42.468 -95.046 -38.732 -91.765 -35.472 -88.054 C -32.193 -84.32 -29.333 -80.062 -26.813 -75.524 C -24.283 -70.991 -22.05 -66.208 -19.975 -61.3 C -17.922 -56.391 -15.931 -51.299 -14.169 -46.324 C -13.717 -45.073 -13.315 -43.809 -12.886 -42.552 C -12.471 -41.292 -12.163 -39.998 -11.822 -38.718 C -11.508 -37.431 -10.967 -36.209 -10.451 -34.979 C -9.934 -33.748 -9.418 -32.513 -8.94 -31.266 C -6.991 -26.285 -5.214 -21.204 -3.704 -15.998 C -2.219 -10.789 -.975 -5.463 0 0 " fill="#000000"/>
<path transform="matrix(1,0,0,-1,199.7468,790.1034)" stroke-width="10.849" stroke-linecap="round" stroke-linejoin="round" fill="none" stroke="#000000" d="M 0 0 L .018 0 C 10.815 -2.715 19.418 11.381 17.099 17.504 C 14.762 23.617 8.864 27.564 3.074 30.638 C -11.696 38.522 -28.013 43.503 -44.672 45.211 C -53.329 46.092 -62.688 45.939 -69.898 41.067 C -77.099 36.194 -77.791 21.981 -72.127 15.382 "/>
<path transform="matrix(1,0,0,-1,199.7646,926.2274)" stroke-width="10.849" stroke-linecap="round" stroke-linejoin="round" fill="none" stroke="#000000" d="M 0 0 C 63.047 22.988 44.411 91.003 32.553 110.313 C 25.325 122.055 12.379 129.93 0 136.124 "/>
<path transform="matrix(1,0,0,-1,331.1152,649.142)" d="M 0 0 C 6.35 -1.014 12.092 -5.078 16.146 -10.383 C 20.198 -15.723 22.641 -22.503 22.704 -29.492 C 22.791 -36.48 20.485 -43.313 16.537 -48.733 C 12.591 -54.122 6.921 -58.298 .586 -59.426 C 4.477 -54.4 7.228 -49.584 9.09 -44.573 C 10.953 -39.596 11.891 -34.543 11.857 -29.599 C 11.806 -24.653 10.771 -19.615 8.808 -14.675 C 6.85 -9.697 3.996 -4.937 0 0 " fill="#000000"/>
<path transform="matrix(1,0,0,-1,1011.855,397.3349)" d="M 0 0 C .736 -2.358 1.389 -4.749 1.963 -7.161 C 2.265 -8.366 2.527 -9.578 2.804 -10.792 C 3.044 -12.009 3.173 -13.234 3.363 -14.46 C 3.691 -16.915 3.996 -19.385 4.251 -21.865 C 4.369 -24.345 4.421 -26.834 4.461 -29.332 C 4.39 -39.298 3.12 -49.38 .145 -59.047 C -2.813 -68.7 -7.263 -77.98 -13.313 -86.138 C -14.035 -87.176 -14.91 -88.123 -15.707 -89.106 C -16.539 -90.069 -17.287 -91.08 -18.197 -91.979 C -20.005 -93.785 -21.728 -95.622 -23.752 -97.193 L -25.23 -98.388 C -25.71 -98.793 -26.217 -99.175 -26.764 -99.516 C -27.834 -100.218 -28.875 -100.931 -29.95 -101.585 C -31.086 -102.182 -32.224 -102.744 -33.348 -103.286 C -34.538 -103.74 -35.741 -104.137 -36.917 -104.482 C -36.025 -103.574 -35.103 -102.804 -34.274 -101.932 C -33.468 -101.016 -32.676 -100.12 -31.882 -99.258 C -30.424 -97.343 -28.935 -95.563 -27.661 -93.566 C -26.267 -91.703 -25.136 -89.616 -23.885 -87.677 C -22.73 -85.653 -21.617 -83.613 -20.524 -81.582 C -16.301 -73.33 -12.965 -64.724 -10.232 -55.891 C -7.497 -47.048 -5.627 -37.926 -4.012 -28.641 C -3.653 -26.312 -3.264 -23.976 -2.844 -21.627 C -2.584 -19.27 -2.274 -16.902 -1.941 -14.519 C -1.769 -13.328 -1.571 -12.132 -1.419 -10.933 C -1.297 -9.733 -1.188 -8.531 -1.04 -7.323 C -.773 -4.907 -.428 -2.47 0 0 " fill="#000000"/>
<path transform="matrix(1,0,0,-1,1005.9854,501.81733)" d="M 0 0 C 3.864 6.716 7.529 12.834 10.693 19.187 C 11.441 20.799 12.192 22.394 12.989 23.952 C 13.685 25.57 14.378 27.183 15.091 28.779 L 15.627 29.974 L 16.105 31.199 L 17.062 33.645 C 17.369 34.464 17.767 35.243 18.04 36.078 L 18.907 38.559 C 21.282 45.148 23.356 51.882 25.219 58.795 C 27.099 65.729 28.794 72.736 30.522 80.231 C 32.023 76.636 32.736 72.831 33.253 69.021 L 33.546 66.151 C 33.649 65.189 33.639 64.238 33.69 63.275 C 33.783 61.351 33.755 59.429 33.652 57.509 C 33.282 49.826 31.757 42.166 29.106 34.87 C 26.439 27.591 22.747 20.608 17.828 14.565 C 12.884 8.565 6.937 3.371 0 0 " fill="#000000"/>
<path transform="matrix(1,0,0,-1,91.5093,894.2968)" d="M 0 0 C .738 7.04 2.522 13.726 4.536 20.286 C 6.597 26.833 9.012 33.23 11.73 39.491 C 14.445 45.754 17.462 51.883 20.816 57.86 C 24.209 63.819 27.835 69.674 32.338 75.13 C 31.289 68.135 29.397 61.524 27.293 55.007 C 25.15 48.508 22.703 42.146 19.983 35.906 C 17.262 29.666 14.294 23.538 11.029 17.535 C 7.725 11.542 4.234 5.655 0 0 " fill="#000000"/>
<path transform="matrix(1,0,0,-1,139.3645,905.6806)" d="M 0 0 C .031 7.262 1.095 14.292 2.427 21.232 C 3.806 28.162 5.591 34.972 7.683 41.683 C 9.777 48.393 12.212 54.992 14.999 61.472 C 17.83 67.937 20.913 74.318 24.927 80.373 C 24.501 73.124 23.221 66.173 21.732 59.293 C 20.206 52.426 18.366 45.667 16.269 38.991 C 14.176 32.314 11.816 25.724 9.184 19.212 C 6.511 12.71 3.657 6.271 0 0 " fill="#000000"/>
<path transform="matrix(1,0,0,-1,899.8062,862.1161)" d="M 0 0 C 3.76 -3.459 6.921 -7.625 9.39 -12.277 C 11.849 -16.931 13.524 -22.117 14.248 -27.5 C 14.979 -32.882 14.717 -38.435 13.609 -43.776 C 13.391 -45.131 12.981 -46.427 12.621 -47.742 C 12.287 -49.068 11.785 -50.326 11.354 -51.616 C 10.41 -54.16 9.264 -56.612 8.027 -59.002 C 2.945 -68.513 -4.386 -76.461 -12.714 -82.691 C -16.897 -85.796 -21.348 -88.489 -26.01 -90.682 C -30.678 -92.856 -35.53 -94.607 -40.56 -95.572 C -32.445 -89.402 -24.974 -83.17 -18.326 -76.267 C -11.688 -69.401 -5.867 -61.958 -1.538 -53.889 C 2.781 -45.827 5.508 -37.113 5.761 -27.994 C 5.913 -23.437 5.436 -18.793 4.417 -14.124 C 3.417 -9.441 1.818 -4.787 0 0 " fill="#000000"/>
<path transform="matrix(1,0,0,-1,918.7568,865.494)" d="M 0 0 C 6.705 -3.314 12.056 -9.611 14.948 -16.96 C 17.877 -24.332 18.347 -32.541 17.02 -40.203 C 15.688 -47.893 12.598 -55.172 8.078 -61.388 C 5.801 -64.482 3.16 -67.322 .123 -69.679 C -2.91 -72.004 -6.406 -73.908 -10.108 -74.585 C -7.565 -71.824 -5.566 -69.044 -3.826 -66.096 C -2.096 -63.159 -.6 -60.157 .704 -57.099 C 3.319 -50.993 5.214 -44.695 6.333 -38.356 C 7.423 -32.014 7.738 -25.616 6.763 -19.255 C 6.293 -16.068 5.495 -12.89 4.361 -9.7 C 3.24 -6.495 1.727 -3.337 0 0 " fill="#000000"/>
<path transform="matrix(1,0,0,-1,561.4795,979.9926)" d="M 0 0 C 4.835 -10.313 8.837 -20.728 13.293 -30.758 C 15.502 -35.772 17.789 -40.696 20.316 -45.338 C 21.592 -47.649 22.899 -49.896 24.345 -51.96 C 25.761 -54.034 27.275 -55.959 28.899 -57.503 C 30.493 -59.074 32.181 -60.204 33.781 -60.743 C 34.578 -61.067 35.374 -61.161 36.204 -61.206 C 36.413 -61.199 36.62 -61.216 36.833 -61.207 L 37.484 -61.139 L 37.647 -61.126 L 37.907 -61.085 L 38.438 -61.003 L 39.5 -60.851 C 45.152 -60.04 50.726 -59.458 56.338 -59.045 C 67.551 -58.25 78.786 -57.875 90.159 -58.695 C 79.378 -62.395 68.476 -65.025 57.586 -67.484 C 52.15 -68.714 46.68 -69.812 41.337 -70.976 L 40.339 -71.198 L 39.839 -71.304 L 39.583 -71.356 L 39.229 -71.415 L 37.805 -71.635 C 37.323 -71.685 36.831 -71.7 36.343 -71.726 C 34.392 -71.767 32.37 -71.548 30.522 -70.951 C 28.68 -70.364 26.943 -69.541 25.453 -68.548 C 24.664 -68.077 24.003 -67.526 23.292 -67.001 C 22.634 -66.451 21.977 -65.896 21.375 -65.313 C 16.629 -60.59 13.646 -55.271 11.139 -49.938 C 8.691 -44.576 6.801 -39.117 5.283 -33.604 C 3.767 -28.09 2.568 -22.534 1.683 -16.935 C .815 -11.331 .169 -5.705 0 0 " fill="#000000"/>
</g>
</g>
</g>
</svg>
