<?xml version="1.0" encoding="UTF-8"?>
<svg width="435px" height="489px" viewBox="0 0 435 489" version="1.1" xmlns="http://www.w3.org/2000/svg" xmlns:xlink="http://www.w3.org/1999/xlink">
    <!-- Generator: Sketch 52.6 (67491) - http://www.bohemiancoding.com/sketch -->
    <title>Group</title>
    <desc>Created with Sketch.</desc>
    <g id="Page-1" stroke="none" stroke-width="1" fill="none" fill-rule="evenodd">
        <g id="realworld">
            <g id="Group" transform="translate(217.250000, 244.250000) scale(-1, 1) rotate(-180.000000) translate(-217.250000, -244.250000) ">
                <path d="M341,487 C325,483.2 315.1,477.6 303,465.5 C286.7,449.2 280,433 280,410.2 C280.1,397.2 282.2,388 287.9,376.6 C296.2,359.8 311.9,345.4 329,338.8 C340.6,334.3 342.3,334 357.5,334 C373.3,334 378.5,335.1 390.9,340.7 C405.9,347.7 420.8,362.6 427.8,377.6 C433.4,390 434.5,395.2 434.5,411 C434.5,423.8 434.2,427 432.3,432.5 C428.7,443.2 427.1,446.4 424.5,448.1 C422.2,449.6 421.8,449.6 419.7,448.2 C417.5,446.8 403.7,427 381.1,393.3 C375.2,384.4 371,379 369,378 C365,376 354.5,376.1 350.1,378.3 C347.7,379.5 344.1,383.6 338.1,392 C333.5,398.6 326.4,408.7 322.3,414.4 C318.3,420.1 315,425.3 315,426 C315,428.8 332,429.6 335.8,426.9 C337,426.1 341.9,419.8 346.7,412.9 C351.5,406 356.2,399.9 357.2,399.4 C359.6,398.1 362.1,399 364.2,401.9 C367.7,406.7 399.9,462.5 401.1,465.8 C403.7,473.2 398.1,479.2 384.4,484 C371.2,488.6 353,489.8 341,487 Z" id="Path" fill="#95B739"></path>
                <path d="M19.3,417.5 C13,416 6.1,410.4 2.7,404 C0.5,400.1 0.5,399.3 0.5,350.5 C0.5,295.1 0.5,294.7 7.5,288.6 C12.7,284 16.7,283.3 39.2,282.8 C61.9,282.2 66.1,282.6 69.1,285.6 C72,288.5 71.4,292.5 66.9,302.6 C63.3,310.6 62.8,312.5 62.8,319.3 C62.8,329.9 65.6,336.8 72.7,344.5 C90.6,363.9 122.3,361.9 137.3,340.5 C144.8,329.8 145.9,316.7 140.6,301.8 C137.7,293.8 137.5,291.7 139.1,288.2 C141.5,282.9 140.5,283 198,282.5 C237.7,282.1 252.1,281.7 253.6,280.8 C256.9,278.9 260.7,274 262,269.9 C263.9,264.2 262.7,254.2 258.6,242.6 C253.6,228.2 254,219.3 260.1,211.7 C265.2,205.1 274.6,202.4 283.3,204.9 C290.4,207 293.7,209.7 296.6,215.9 C300.1,223.4 299.8,230.3 295.4,243.9 C290.7,258.3 290.5,265.8 294.5,274 C298.6,282.5 298.5,282.5 333.5,282.5 L363.1,282.5 L365.5,284.9 C370.8,290.2 371.2,303.1 366.1,308.6 C363.7,311.2 362.7,311.5 352.7,312.5 C329.2,314.8 308.4,325.1 290.5,343.1 C278.3,355.4 268.7,371.8 265.4,386 C261,404.9 259.7,408.6 256.6,412 C250.7,418.2 256,417.9 134,418.1 C72.7,418.2 21,418 19.3,417.5 Z" id="Path" fill="#C26FC6"></path>
                <path d="M95.6,338 C83.1,333.6 78.5,319.1 84.5,302.5 C90,286.8 90.7,275.5 86.4,267.3 C83.4,261.6 82.7,261.5 40.2,261.5 C5.6,261.5 1.1,261.3 0.6,259.9 C0.3,259 0,237.6 0,212.2 C0,162.5 0.4,158.8 5.2,151.9 C11.7,142.8 17,141.2 41.5,140.7 C64.6,140.3 68.4,140.9 70.5,145.7 C72,149.4 71.2,153.3 66.8,161.9 C58.7,177.9 64,198.3 79,208.5 C99.6,222.5 127.3,216.7 138.9,196.1 C144.8,185.6 145.3,175.3 140.6,161.3 C139.2,157.1 138,152.3 138,150.7 C138,146.7 141.3,142.8 145.8,141.5 C148.1,140.9 168.6,140.5 200.3,140.5 C258.3,140.5 256.7,140.7 260.1,133 C263.4,125.5 262.9,115.4 258.4,102 C256.3,95.9 254.7,89 254.7,86.5 C254.7,72.1 263.6,62.5 277.1,62.5 C288.2,62.5 295.7,68.2 298.8,79.1 C300.7,85.5 300.3,88.2 295.9,101.5 C292.3,112.6 291.9,114.8 292.2,121.5 C292.6,130.3 295,135.9 299.4,138.6 C302.1,140.3 304.7,140.5 320.8,140.5 C349.9,140.5 358.2,143.5 364.5,156 L367.5,162 L367.8,209.5 C368,235.6 367.8,258 367.5,259.3 L366.9,261.7 L343.2,261.3 C321.5,261 319.2,260.8 316,259 C310.6,255.8 310,251.6 313.4,241.7 C319.8,222.8 317.2,208.8 304.9,196.7 C287.6,179.8 256.3,182.8 242.6,202.7 C234.7,214.3 233.9,227.5 240.3,241 C243.8,248.3 245,254.6 243.2,257 C240.3,261 240.9,261 182.8,261.5 L126.8,262 L124,265.2 C117.7,272.3 117.2,283.2 122.6,299.6 C126.9,312.7 127.3,319.7 124.3,326.6 C119.6,337.2 107.2,342.2 95.6,338 Z" id="Path" fill="#914B99"></path>
                <path d="M95.6,196.5 C82.1,191.2 78.3,177.9 84.9,159 C90.5,143 90.4,130.2 84.6,124 L81.3,120.5 L41.8,120.5 C12.5,120.5 2.1,120.2 1.2,119.3 C0.3,118.4 0,105.9 0,69.2 L0,20.4 L2.6,15 C5.3,9.2 8.8,5.7 15.4,2.2 L19.5,0 L184,0 L348.5,0 L352.7,2.3 C358.1,5.1 363.1,10.1 365.6,15.1 C367.4,18.8 367.5,21.9 367.8,68.5 C368,114.3 367.9,118.1 366.3,119.2 C364.2,120.8 333.9,121 323.7,119.5 C316.1,118.4 313.6,117.2 312.1,113.8 C310.4,110.2 310.8,107.2 313.7,98.8 C317.3,88.5 317.5,75.7 314.1,68 C307.5,53.2 293.6,44.5 276.6,44.5 C261.6,44.5 249.8,50.5 242.1,62.1 C234.7,73.3 234.1,85.9 240.4,99.1 C244.6,108.2 245.3,113.4 242.6,116.4 C239.1,120.3 234,120.6 180,120.4 C138.5,120.3 128,120.5 126.3,121.6 C125.1,122.3 123.1,124.7 121.8,126.9 C119.8,130.4 119.5,132.4 119.5,140.5 C119.5,148.8 119.9,151.2 123,159.5 C125.6,166.8 126.4,170.4 126.3,175 C126.1,185.8 121.3,193.1 112.4,196.4 C105.7,199 102,199 95.6,196.5 Z" id="Path" fill="#6F3875"></path>
            </g>
        </g>
    </g>
</svg>