<svg version="1.1" inkscape:version="0.91 r13725" sodipodi:docname="Singapore_Airlines2.svg" xmlns:cc="http://creativecommons.org/ns#" xmlns:dc="http://purl.org/dc/elements/1.1/" xmlns:inkscape="http://www.inkscape.org/namespaces/inkscape" xmlns:rdf="http://www.w3.org/1999/02/22-rdf-syntax-ns#" xmlns:sodipodi="http://sodipodi.sourceforge.net/DTD/sodipodi-0.dtd" xmlns:svg="http://www.w3.org/2000/svg" xmlns="http://www.w3.org/2000/svg" xmlns:xlink="http://www.w3.org/1999/xlink" x="0px" y="0px" viewBox="0 0 350 128.4" style="enable-background:new 0 0 350 128.4;" xml:space="preserve">
<path inkscape:connector-curvature="0" d="M0,120.9h242.3l-4.8,7.5H0L0,120.9"/>
<path d="M286.4,117.5h-8.9l18-28.4c0,0,2.7-5.9-0.8-12.1l-25.1-41.5c0,0-2.2-3.9,0-7.5l7.4-11.1l29.4,48.1c0,0,7.6,10.1-0.7,22.5L286.4,117.5 M307.9,108.8l10.9-16.7c0,0,3.2-6.9,11.4-6.9h11.6L350,98c0,0-6.4-0.7-9.2,3.9l-11.9,18c0,0-3.9,8.4-14.3,8.4h-56.2l21.4-32.8c0,0,3-3.9-1.2-10.2l-19-30.6c0,0-4.7-4.5,0.2-12.3l5.6-8.4l26.4,42.8c0,0,4.7,5.9,0,12.9l-19.9,31h41.9c0,0,4.7,0.9,8.8-5.2l10.4-16c0,0,2.4-5.4,7.6-7.6H332c0,0-4.4,0.2-7.7,5.4l-9.2,14.3c0,0-3.4,6-10.8,6h-14.6l17.7-27.4c0,0,9.6-12.6,2.9-24.2l-29.3-48.4c0,0-2.2-4.2,0.3-8.1l6.4-9.6l33.3,53.7c0,0,4.9,8,4.9,14.3c0,6.2-3.9,13.3-6.1,16.8l-14.7,22.9c0,0-1.7,2.2-0.5,3C305.8,111.5,306.9,110,307.9,108.8"/>
<path d="M122,85.5h5.2V106h12.6v4.4H122L122,85.5 M143.8,110.4h5.1V85.5h-5.1V110.4z M80.7,110.4h5.1V85.5h-5.1V110.4z M185.7,85.5h19.5v4.1h-14.3v6.1h12.2v4.5h-12.2v6h14.3v4.1h-19.5V85.5 M213.2,52h19.5v4.1h-14.3v6.1h12.2v4.5h-12.2v6.1h14.3v4.1h-19.5V52 M93.7,110.4V85.5h14.8c0,0,7.1,0.1,7.1,7.3c0,0,0.7,5.9-5.4,8.3l7.5,9.3h-6.4L101,97.5h5.4c0,0,3.9-0.1,3.9-4c0-3.7-3.1-4-4.1-4h-7.3v20.9H93.7 M184.8,76.8V52h14.8c0,0,7.1,0.1,7.1,7.3c0,0,0.6,5.9-5.4,8.3l7.5,9.3h-6.4L192.1,64h5.4c0,0,3.9-0.1,3.9-4c0-3.7-3.1-4-4.1-4H190v20.8H184.8 M81.1,72.5h7V61.1h5v15.7H80c-1.9,0-11.4-2.2-11.4-12.1C68.5,54.9,77.1,52,80.4,52h12.8v4.4H81.6c0,0-7.7,0-7.7,8.2C73.9,70.9,80.3,72.5,81.1,72.5 M155.7,85.5h5.2v3.9l3.3-3.9h6.2c0,0,8.5-0.5,8.5,8.6v16.3h-5.3V93.3c0,0-0.2-3.4-3.7-3.4h-8.9v20.5h-5.2L155.7,85.5 M40.7,52h5.2v3.8l3.3-3.8h6.2c0,0,8.5-0.5,8.5,8.6v16.2h-5.3v-17c0,0-0.2-3.4-3.8-3.4h-8.9v20.4h-5.2L40.7,52 M28.5,76.8h5.1V52h-5.1V76.8z M210.9,110.4v-4.2h14.4c0,0,2.9,0.5,2.9-2.9c0-3.5-2.2-3.1-2.9-3.1h-8.3c0,0-6.4,0.5-6.4-7.1c0-7.5,6.3-7.5,6.3-7.5h15.8v4.4h-13.9c0,0-3,0-3,2.9c0,2.9,2,3.4,3.9,3.4h7.4c0,0,6.3-0.7,6.3,6.8c0,7.5-6.4,7.4-6.4,7.4H210.9 M0.5,76.8v-4.2H15c0,0,2.9,0.5,2.9-2.9c0-3.5-2.2-3.1-2.9-3.1H6.5c0,0-6.4,0.5-6.4-7C0.1,52,6.5,52,6.5,52h15.8v4.4H8.4c0,0-3,0-3,2.9c0,2.9,2.1,3.4,3.9,3.4h7.4c0,0,6.3-0.7,6.3,6.8c0,7.5-6.4,7.4-6.4,7.4H0.5 M167.1,50.5c-7.5,0-13.6,6.1-13.6,13.6c0,7.5,6.1,13.6,13.6,13.6c7.6,0,13.6-6,13.6-13.6C180.6,56.6,174.6,50.5,167.1,50.5 M167.1,72.6c-4.7,0-8.5-3.8-8.5-8.6c0-4.7,3.8-8.6,8.5-8.6c4.7,0,8.6,3.9,8.6,8.6C175.7,68.8,171.8,72.6,167.1,72.6 M113.7,52h-5.5L96.4,76.8h5.8l3.1-7.1h11.3l3.1,7.1h5.8 M106.8,66l4.2-10.2l4.1,10.1L106.8,66z M65.2,85.5h-5.5l-11.8,24.9h5.8l3.1-7.2h11.3l3.1,7.2H77 M58.3,99.6l4.1-10.2l4.1,10.2L58.3,99.6z M142.5,52h-13.8v24.8h5.3V64.8l3.1,4.2h5.4c4.8,0,8-4,8-8.5C150.5,56,147.3,52,142.5,52 M142.4,64.4H134v-7.8h8.3c1.9,0,3.1,2.1,3.1,3.9C145.5,62.4,144.2,64.4,142.4,64.4"/>
</svg>
