<?xml version="1.0" encoding="utf-8"?>
<!-- Generator: Adobe Illustrator 23.0.0, SVG Export Plug-In . SVG Version: 6.00 Build 0)  -->
<svg version="1.1" id="Layer_1" xmlns="http://www.w3.org/2000/svg" xmlns:xlink="http://www.w3.org/1999/xlink" x="0px" y="0px"
	 viewBox="0 0 184.8 64.86" style="enable-background:new 0 0 184.8 64.86;" xml:space="preserve">
<style type="text/css">
	.st0{fill:url(#SVGID_1_);}
	.st1{fill:url(#SVGID_2_);}
	.st2{fill:url(#SVGID_3_);}
	.st3{fill:none;}
</style>
<rect x="58.32" y="0.99" width="30.94" height="62.88"/>
<polygon points="120.84,0.99 120.84,31.76 90.36,0.99 "/>
<polygon points="120.85,33 120.84,63.87 90.36,63.87 "/>
<rect x="121.56" y="0.99" width="31.08" height="62.88"/>
<polygon points="184.25,0.99 184.25,32.43 152.81,0.99 "/>
<radialGradient id="SVGID_1_" cx="100.823" cy="-3.4792" r="88.9202" gradientUnits="userSpaceOnUse">
	<stop  offset="0.1221" style="stop-color:#F49F25"/>
	<stop  offset="0.2074" style="stop-color:#F3952E"/>
	<stop  offset="0.3711" style="stop-color:#EF7A3D"/>
	<stop  offset="0.5944" style="stop-color:#EA444A"/>
	<stop  offset="0.6785" style="stop-color:#E8214D"/>
</radialGradient>
<polygon class="st0" points="120.3,32.44 90.1,62.92 90.1,1.94 "/>
<radialGradient id="SVGID_2_" cx="150.2327" cy="34.9207" r="50.8735" fx="145.0884" fy="34.9133" gradientTransform="matrix(0.9823 0 0 0.9823 2.0561 4.448)" gradientUnits="userSpaceOnUse">
	<stop  offset="0.2308" style="stop-color:#E95E48"/>
	<stop  offset="0.3566" style="stop-color:#E95A49"/>
	<stop  offset="0.4809" style="stop-color:#E94F4A"/>
	<stop  offset="0.6041" style="stop-color:#E83A4B"/>
	<stop  offset="0.6785" style="stop-color:#E7224C"/>
</radialGradient>
<circle class="st1" cx="169" cy="48.8" r="15.79"/>
<radialGradient id="SVGID_3_" cx="-158.0504" cy="13.9144" r="64.3045" gradientTransform="matrix(0.7071 0.7071 -0.7071 0.7071 141.8755 91.5459)" gradientUnits="userSpaceOnUse">
	<stop  offset="0.1982" style="stop-color:#F9A970"/>
	<stop  offset="0.2985" style="stop-color:#F9A96E"/>
	<stop  offset="0.3976" style="stop-color:#F8A766"/>
	<stop  offset="0.4962" style="stop-color:#F7A557"/>
	<stop  offset="0.5939" style="stop-color:#F5A140"/>
	<stop  offset="0.6785" style="stop-color:#F49E25"/>
</radialGradient>
<path class="st2" d="M52.04,8.65L8.65,52.03c-11.65-12-11.54-31.18,0.33-43.05C20.85-2.88,40.04-2.99,52.04,8.65z"/>
<path d="M48.86,55.88C37,67.74,17.83,67.86,5.83,56.22L49.2,12.84C60.84,24.85,60.73,44.01,48.86,55.88z"/>
<line class="st3" x1="120.85" y1="32.77" x2="120.85" y2="31.04"/>
<line class="st3" x1="122.07" y1="31.76" x2="121.19" y2="32.65"/>
<polygon class="st3" points="120.35,32.44 90.15,62.92 90.15,1.94 "/>
</svg>
